<?xml version="1.0" encoding="utf-8" standalone="no"?>
<!DOCTYPE svg PUBLIC "-//W3C//DTD SVG 1.1//EN"
  "http://www.w3.org/Graphics/SVG/1.1/DTD/svg11.dtd">
<svg xmlns:xlink="http://www.w3.org/1999/xlink" width="1036.4pt" height="294.516875pt" viewBox="0 0 1036.4 294.516875" xmlns="http://www.w3.org/2000/svg" version="1.1">
 <metadata>
  <rdf:RDF xmlns:dc="http://purl.org/dc/elements/1.1/" xmlns:cc="http://creativecommons.org/ns#" xmlns:rdf="http://www.w3.org/1999/02/22-rdf-syntax-ns#">
   <cc:Work>
    <dc:type rdf:resource="http://purl.org/dc/dcmitype/StillImage"/>
    <dc:date>2026-04-17T19:01:24.312916</dc:date>
    <dc:format>image/svg+xml</dc:format>
    <dc:creator>
     <cc:Agent>
      <dc:title>Matplotlib v3.9.4, https://matplotlib.org/</dc:title>
     </cc:Agent>
    </dc:creator>
   </cc:Work>
  </rdf:RDF>
 </metadata>
 <defs>
  <style type="text/css">*{stroke-linejoin: round; stroke-linecap: butt}</style>
 </defs>
 <g id="figure_1">
  <g id="patch_1">
   <path d="M 0 294.516875 
L 1036.4 294.516875 
L 1036.4 0 
L 0 0 
z
" style="fill: #fcfcf9"/>
  </g>
  <g id="axes_1">
   <g id="patch_2">
    <path d="M 36.507353 241.564051 
L 180.789706 241.564051 
Q 192.813235 241.564051 192.813235 229.944287 
L 192.813235 126.818875 
Q 192.813235 115.19911 180.789706 115.19911 
L 36.507353 115.19911 
Q 24.483824 115.19911 24.483824 126.818875 
L 24.483824 229.944287 
Q 24.483824 241.564051 36.507353 241.564051 
z
" clip-path="url(#pe6bf11ea95)" style="fill: #f7f4ea; stroke: #6c7a63; stroke-width: 1.5; stroke-linejoin: miter"/>
   </g>
   <g id="patch_3">
    <path d="M 36.507353 131.176287 
L 180.789706 131.176287 
Q 192.813235 131.176287 192.813235 119.556522 
L 192.813235 126.818875 
Q 192.813235 115.19911 180.789706 115.19911 
L 36.507353 115.19911 
Q 24.483824 115.19911 24.483824 126.818875 
L 24.483824 119.556522 
Q 24.483824 131.176287 36.507353 131.176287 
z
" clip-path="url(#pe6bf11ea95)" style="fill: #3f6b5b; opacity: 0.95"/>
   </g>
   <g id="patch_4">
    <path d="M 42.519118 147.153463 
C 45.30921 147.153463 47.985404 146.082173 49.958297 144.175532 
C 51.93119 142.26889 53.039706 139.682567 53.039706 136.986169 
C 53.039706 134.289771 51.93119 131.703448 49.958297 129.796807 
C 47.985404 127.890165 45.30921 126.818875 42.519118 126.818875 
C 39.729025 126.818875 37.052832 127.890165 35.079938 129.796807 
C 33.107045 131.703448 31.998529 134.289771 31.998529 136.986169 
C 31.998529 139.682567 33.107045 142.26889 35.079938 144.175532 
C 37.052832 146.082173 39.729025 147.153463 42.519118 147.153463 
z
" clip-path="url(#pe6bf11ea95)" style="fill: #ffffff; stroke: #3f6b5b; stroke-width: 1.2; stroke-linejoin: miter"/>
   </g>
   <g id="patch_5">
    <path d="M 239.404412 241.564051 
L 383.686765 241.564051 
Q 395.710294 241.564051 395.710294 229.944287 
L 395.710294 126.818875 
Q 395.710294 115.19911 383.686765 115.19911 
L 239.404412 115.19911 
Q 227.380882 115.19911 227.380882 126.818875 
L 227.380882 229.944287 
Q 227.380882 241.564051 239.404412 241.564051 
z
" clip-path="url(#pe6bf11ea95)" style="fill: #f7f4ea; stroke: #6c7a63; stroke-width: 1.5; stroke-linejoin: miter"/>
   </g>
   <g id="patch_6">
    <path d="M 239.404412 131.176287 
L 383.686765 131.176287 
Q 395.710294 131.176287 395.710294 119.556522 
L 395.710294 126.818875 
Q 395.710294 115.19911 383.686765 115.19911 
L 239.404412 115.19911 
Q 227.380882 115.19911 227.380882 126.818875 
L 227.380882 119.556522 
Q 227.380882 131.176287 239.404412 131.176287 
z
" clip-path="url(#pe6bf11ea95)" style="fill: #3f6b5b; opacity: 0.95"/>
   </g>
   <g id="patch_7">
    <path d="M 245.416176 147.153463 
C 248.206269 147.153463 250.882462 146.082173 252.855356 144.175532 
C 254.828249 142.26889 255.936765 139.682567 255.936765 136.986169 
C 255.936765 134.289771 254.828249 131.703448 252.855356 129.796807 
C 250.882462 127.890165 248.206269 126.818875 245.416176 126.818875 
C 242.626084 126.818875 239.949891 127.890165 237.976997 129.796807 
C 236.004104 131.703448 234.895588 134.289771 234.895588 136.986169 
C 234.895588 139.682567 236.004104 142.26889 237.976997 144.175532 
C 239.949891 146.082173 242.626084 147.153463 245.416176 147.153463 
z
" clip-path="url(#pe6bf11ea95)" style="fill: #ffffff; stroke: #3f6b5b; stroke-width: 1.2; stroke-linejoin: miter"/>
   </g>
   <g id="patch_8">
    <path d="M 442.301471 241.564051 
L 586.583824 241.564051 
Q 598.607353 241.564051 598.607353 229.944287 
L 598.607353 126.818875 
Q 598.607353 115.19911 586.583824 115.19911 
L 442.301471 115.19911 
Q 430.277941 115.19911 430.277941 126.818875 
L 430.277941 229.944287 
Q 430.277941 241.564051 442.301471 241.564051 
z
" clip-path="url(#pe6bf11ea95)" style="fill: #f7f4ea; stroke: #6c7a63; stroke-width: 1.5; stroke-linejoin: miter"/>
   </g>
   <g id="patch_9">
    <path d="M 442.301471 131.176287 
L 586.583824 131.176287 
Q 598.607353 131.176287 598.607353 119.556522 
L 598.607353 126.818875 
Q 598.607353 115.19911 586.583824 115.19911 
L 442.301471 115.19911 
Q 430.277941 115.19911 430.277941 126.818875 
L 430.277941 119.556522 
Q 430.277941 131.176287 442.301471 131.176287 
z
" clip-path="url(#pe6bf11ea95)" style="fill: #3f6b5b; opacity: 0.95"/>
   </g>
   <g id="patch_10">
    <path d="M 448.313235 147.153463 
C 451.103328 147.153463 453.779521 146.082173 455.752415 144.175532 
C 457.725308 142.26889 458.833824 139.682567 458.833824 136.986169 
C 458.833824 134.289771 457.725308 131.703448 455.752415 129.796807 
C 453.779521 127.890165 451.103328 126.818875 448.313235 126.818875 
C 445.523143 126.818875 442.846949 127.890165 440.874056 129.796807 
C 438.901163 131.703448 437.792647 134.289771 437.792647 136.986169 
C 437.792647 139.682567 438.901163 142.26889 440.874056 144.175532 
C 442.846949 146.082173 445.523143 147.153463 448.313235 147.153463 
z
" clip-path="url(#pe6bf11ea95)" style="fill: #ffffff; stroke: #3f6b5b; stroke-width: 1.2; stroke-linejoin: miter"/>
   </g>
   <g id="patch_11">
    <path d="M 645.198529 241.564051 
L 789.480882 241.564051 
Q 801.504412 241.564051 801.504412 229.944287 
L 801.504412 126.818875 
Q 801.504412 115.19911 789.480882 115.19911 
L 645.198529 115.19911 
Q 633.175 115.19911 633.175 126.818875 
L 633.175 229.944287 
Q 633.175 241.564051 645.198529 241.564051 
z
" clip-path="url(#pe6bf11ea95)" style="fill: #f7f4ea; stroke: #6c7a63; stroke-width: 1.5; stroke-linejoin: miter"/>
   </g>
   <g id="patch_12">
    <path d="M 645.198529 131.176287 
L 789.480882 131.176287 
Q 801.504412 131.176287 801.504412 119.556522 
L 801.504412 126.818875 
Q 801.504412 115.19911 789.480882 115.19911 
L 645.198529 115.19911 
Q 633.175 115.19911 633.175 126.818875 
L 633.175 119.556522 
Q 633.175 131.176287 645.198529 131.176287 
z
" clip-path="url(#pe6bf11ea95)" style="fill: #3f6b5b; opacity: 0.95"/>
   </g>
   <g id="patch_13">
    <path d="M 651.210294 147.153463 
C 654.000387 147.153463 656.67658 146.082173 658.649473 144.175532 
C 660.622367 142.26889 661.730882 139.682567 661.730882 136.986169 
C 661.730882 134.289771 660.622367 131.703448 658.649473 129.796807 
C 656.67658 127.890165 654.000387 126.818875 651.210294 126.818875 
C 648.420202 126.818875 645.744008 127.890165 643.771115 129.796807 
C 641.798221 131.703448 640.689706 134.289771 640.689706 136.986169 
C 640.689706 139.682567 641.798221 142.26889 643.771115 144.175532 
C 645.744008 146.082173 648.420202 147.153463 651.210294 147.153463 
z
" clip-path="url(#pe6bf11ea95)" style="fill: #ffffff; stroke: #3f6b5b; stroke-width: 1.2; stroke-linejoin: miter"/>
   </g>
   <g id="patch_14">
    <path d="M 848.095588 241.564051 
L 992.377941 241.564051 
Q 1004.401471 241.564051 1004.401471 229.944287 
L 1004.401471 126.818875 
Q 1004.401471 115.19911 992.377941 115.19911 
L 848.095588 115.19911 
Q 836.072059 115.19911 836.072059 126.818875 
L 836.072059 229.944287 
Q 836.072059 241.564051 848.095588 241.564051 
z
" clip-path="url(#pe6bf11ea95)" style="fill: #f7f4ea; stroke: #6c7a63; stroke-width: 1.5; stroke-linejoin: miter"/>
   </g>
   <g id="patch_15">
    <path d="M 848.095588 131.176287 
L 992.377941 131.176287 
Q 1004.401471 131.176287 1004.401471 119.556522 
L 1004.401471 126.818875 
Q 1004.401471 115.19911 992.377941 115.19911 
L 848.095588 115.19911 
Q 836.072059 115.19911 836.072059 126.818875 
L 836.072059 119.556522 
Q 836.072059 131.176287 848.095588 131.176287 
z
" clip-path="url(#pe6bf11ea95)" style="fill: #3f6b5b; opacity: 0.95"/>
   </g>
   <g id="patch_16">
    <path d="M 854.107353 147.153463 
C 856.897446 147.153463 859.573639 146.082173 861.546532 144.175532 
C 863.519426 142.26889 864.627941 139.682567 864.627941 136.986169 
C 864.627941 134.289771 863.519426 131.703448 861.546532 129.796807 
C 859.573639 127.890165 856.897446 126.818875 854.107353 126.818875 
C 851.31726 126.818875 848.641067 127.890165 846.668174 129.796807 
C 844.69528 131.703448 843.586765 134.289771 843.586765 136.986169 
C 843.586765 139.682567 844.69528 142.26889 846.668174 144.175532 
C 848.641067 146.082173 851.31726 147.153463 854.107353 147.153463 
z
" clip-path="url(#pe6bf11ea95)" style="fill: #ffffff; stroke: #3f6b5b; stroke-width: 1.2; stroke-linejoin: miter"/>
   </g>
   <g id="patch_17">
    <path d="M 197.322059 178.381581 
Q 210.097059 178.381581 220.635991 178.381581 
" clip-path="url(#pe6bf11ea95)" style="fill: none; opacity: 0.95; stroke: #3f6b5b; stroke-width: 2; stroke-linecap: round"/>
    <path d="M 215.435991 175.781581 
L 220.635991 178.381581 
L 215.435991 180.981581 
z
" clip-path="url(#pe6bf11ea95)" style="fill: #3f6b5b; opacity: 0.95; stroke: #3f6b5b; stroke-width: 2; stroke-linecap: round"/>
   </g>
   <g id="patch_18">
    <path d="M 400.219118 178.381581 
Q 412.994118 178.381581 423.53305 178.381581 
" clip-path="url(#pe6bf11ea95)" style="fill: none; opacity: 0.95; stroke: #3f6b5b; stroke-width: 2; stroke-linecap: round"/>
    <path d="M 418.33305 175.781581 
L 423.53305 178.381581 
L 418.33305 180.981581 
z
" clip-path="url(#pe6bf11ea95)" style="fill: #3f6b5b; opacity: 0.95; stroke: #3f6b5b; stroke-width: 2; stroke-linecap: round"/>
   </g>
   <g id="patch_19">
    <path d="M 603.116176 178.381581 
Q 615.891176 178.381581 626.430108 178.381581 
" clip-path="url(#pe6bf11ea95)" style="fill: none; opacity: 0.95; stroke: #3f6b5b; stroke-width: 2; stroke-linecap: round"/>
    <path d="M 621.230108 175.781581 
L 626.430108 178.381581 
L 621.230108 180.981581 
z
" clip-path="url(#pe6bf11ea95)" style="fill: #3f6b5b; opacity: 0.95; stroke: #3f6b5b; stroke-width: 2; stroke-linecap: round"/>
   </g>
   <g id="patch_20">
    <path d="M 806.013235 178.381581 
Q 818.788235 178.381581 829.327167 178.381581 
" clip-path="url(#pe6bf11ea95)" style="fill: none; opacity: 0.95; stroke: #3f6b5b; stroke-width: 2; stroke-linecap: round"/>
    <path d="M 824.127167 175.781581 
L 829.327167 178.381581 
L 824.127167 180.981581 
z
" clip-path="url(#pe6bf11ea95)" style="fill: #3f6b5b; opacity: 0.95; stroke: #3f6b5b; stroke-width: 2; stroke-linecap: round"/>
   </g>
   <g id="text_1">
    <!-- 1 -->
    <g style="fill: #3f6b5b" transform="translate(39.040211 139.745544) scale(0.1 -0.1)">
     <defs>
      <path id="DejaVuSans-Bold-31" d="M 750 831 
L 1813 831 
L 1813 3847 
L 722 3622 
L 722 4441 
L 1806 4666 
L 2950 4666 
L 2950 831 
L 4013 831 
L 4013 0 
L 750 0 
L 750 831 
z
" transform="scale(0.015625)"/>
     </defs>
     <use xlink:href="#DejaVuSans-Bold-31"/>
    </g>
   </g>
   <g id="text_2">
    <!-- Historical -->
    <g style="fill: #213547" transform="translate(69.728529 165.591882) scale(0.14 -0.14)">
     <defs>
      <path id="DejaVuSerif-Bold-48" d="M 300 0 
L 300 378 
L 897 378 
L 897 4288 
L 300 4288 
L 300 4666 
L 2700 4666 
L 2700 4288 
L 2100 4288 
L 2100 2719 
L 3956 2719 
L 3956 4288 
L 3359 4288 
L 3359 4666 
L 5759 4666 
L 5759 4288 
L 5159 4288 
L 5159 378 
L 5759 378 
L 5759 0 
L 3359 0 
L 3359 378 
L 3956 378 
L 3956 2291 
L 2100 2291 
L 2100 378 
L 2700 378 
L 2700 0 
L 300 0 
z
" transform="scale(0.015625)"/>
      <path id="DejaVuSerif-Bold-69" d="M 588 4263 
Q 588 4516 763 4689 
Q 938 4863 1191 4863 
Q 1438 4863 1611 4689 
Q 1784 4516 1784 4263 
Q 1784 4016 1611 3842 
Q 1438 3669 1191 3669 
Q 938 3669 763 3841 
Q 588 4013 588 4263 
z
M 1797 378 
L 2272 378 
L 2272 0 
L 219 0 
L 219 378 
L 691 378 
L 691 2944 
L 219 2944 
L 219 3322 
L 1797 3322 
L 1797 378 
z
" transform="scale(0.015625)"/>
      <path id="DejaVuSerif-Bold-73" d="M 300 97 
L 300 1025 
L 653 1025 
Q 697 653 931 458 
Q 1166 263 1569 263 
Q 1906 263 2086 380 
Q 2266 497 2266 716 
Q 2266 916 2152 1025 
Q 2038 1134 1709 1216 
L 1253 1331 
Q 738 1459 506 1698 
Q 275 1938 275 2344 
Q 275 2884 650 3148 
Q 1025 3413 1806 3413 
Q 2100 3413 2433 3364 
Q 2766 3316 3169 3213 
L 3169 2375 
L 2816 2375 
Q 2788 2716 2573 2887 
Q 2359 3059 1959 3059 
Q 1622 3059 1448 2951 
Q 1275 2844 1275 2638 
Q 1275 2469 1375 2372 
Q 1475 2275 1734 2209 
L 2188 2094 
Q 2841 1928 3091 1684 
Q 3341 1441 3341 1006 
Q 3341 444 2939 176 
Q 2538 -91 1691 -91 
Q 1381 -91 1034 -44 
Q 688 3 300 97 
z
" transform="scale(0.015625)"/>
      <path id="DejaVuSerif-Bold-74" d="M 634 2944 
L 153 2944 
L 153 3322 
L 634 3322 
L 634 4353 
L 1741 4353 
L 1741 3322 
L 2663 3322 
L 2663 2944 
L 1741 2944 
L 1741 909 
Q 1741 475 1809 369 
Q 1878 263 2059 263 
Q 2259 263 2356 397 
Q 2453 531 2459 813 
L 2925 813 
Q 2897 313 2651 111 
Q 2406 -91 1806 -91 
Q 1122 -91 878 123 
Q 634 338 634 909 
L 634 2944 
z
" transform="scale(0.015625)"/>
      <path id="DejaVuSerif-Bold-6f" d="M 2138 263 
Q 2488 263 2630 563 
Q 2772 863 2772 1663 
Q 2772 2463 2631 2761 
Q 2491 3059 2138 3059 
Q 1784 3059 1640 2757 
Q 1497 2456 1497 1663 
Q 1497 869 1640 566 
Q 1784 263 2138 263 
z
M 2138 -91 
Q 1259 -91 761 376 
Q 263 844 263 1663 
Q 263 2484 761 2948 
Q 1259 3413 2138 3413 
Q 3019 3413 3516 2948 
Q 4013 2484 4013 1663 
Q 4013 844 3514 376 
Q 3016 -91 2138 -91 
z
" transform="scale(0.015625)"/>
      <path id="DejaVuSerif-Bold-72" d="M 3438 3359 
L 3438 2369 
L 3084 2369 
Q 3066 2634 2941 2764 
Q 2816 2894 2578 2894 
Q 2216 2894 2006 2575 
Q 1797 2256 1797 1691 
L 1797 378 
L 2400 378 
L 2400 0 
L 219 0 
L 219 378 
L 691 378 
L 691 2944 
L 184 2944 
L 184 3322 
L 1797 3322 
L 1797 2731 
Q 1959 3078 2226 3245 
Q 2494 3413 2881 3413 
Q 2978 3413 3117 3398 
Q 3256 3384 3438 3359 
z
" transform="scale(0.015625)"/>
      <path id="DejaVuSerif-Bold-63" d="M 3609 1038 
Q 3491 469 3123 189 
Q 2756 -91 2125 -91 
Q 1238 -91 750 368 
Q 263 828 263 1663 
Q 263 2488 744 2950 
Q 1225 3413 2081 3413 
Q 2428 3413 2781 3347 
Q 3134 3281 3500 3150 
L 3500 2228 
L 3150 2228 
Q 3100 2650 2903 2854 
Q 2706 3059 2350 3059 
Q 1888 3059 1692 2746 
Q 1497 2434 1497 1663 
Q 1497 909 1687 586 
Q 1878 263 2309 263 
Q 2644 263 2845 463 
Q 3047 663 3091 1038 
L 3609 1038 
z
" transform="scale(0.015625)"/>
      <path id="DejaVuSerif-Bold-61" d="M 3525 2041 
L 3525 378 
L 4000 378 
L 4000 0 
L 2419 0 
L 2419 422 
Q 2200 159 1931 34 
Q 1663 -91 1319 -91 
Q 809 -91 536 182 
Q 263 456 263 966 
Q 263 1525 655 1803 
Q 1047 2081 1838 2081 
L 2419 2081 
L 2419 2278 
Q 2419 2681 2228 2873 
Q 2038 3066 1638 3066 
Q 1306 3066 1126 2930 
Q 947 2794 872 2484 
L 519 2484 
L 519 3200 
Q 816 3306 1134 3359 
Q 1453 3413 1806 3413 
Q 2697 3413 3111 3081 
Q 3525 2750 3525 2041 
z
M 2419 1044 
L 2419 1709 
L 2003 1709 
Q 1694 1709 1528 1540 
Q 1363 1372 1363 1056 
Q 1363 741 1483 584 
Q 1603 428 1850 428 
Q 2106 428 2262 597 
Q 2419 766 2419 1044 
z
" transform="scale(0.015625)"/>
      <path id="DejaVuSerif-Bold-6c" d="M 1797 378 
L 2272 378 
L 2272 0 
L 219 0 
L 219 378 
L 691 378 
L 691 4488 
L 219 4488 
L 219 4863 
L 1797 4863 
L 1797 378 
z
" transform="scale(0.015625)"/>
     </defs>
     <use xlink:href="#DejaVuSerif-Bold-48"/>
     <use xlink:href="#DejaVuSerif-Bold-69" x="94.482422"/>
     <use xlink:href="#DejaVuSerif-Bold-73" x="132.470703"/>
     <use xlink:href="#DejaVuSerif-Bold-74" x="188.769531"/>
     <use xlink:href="#DejaVuSerif-Bold-6f" x="234.960938"/>
     <use xlink:href="#DejaVuSerif-Bold-72" x="301.660156"/>
     <use xlink:href="#DejaVuSerif-Bold-69" x="354.345703"/>
     <use xlink:href="#DejaVuSerif-Bold-63" x="392.333984"/>
     <use xlink:href="#DejaVuSerif-Bold-61" x="453.222656"/>
     <use xlink:href="#DejaVuSerif-Bold-6c" x="518.017578"/>
    </g>
    <!-- Logistics Logs -->
    <g style="fill: #213547" transform="translate(52.604779 181.26882) scale(0.14 -0.14)">
     <defs>
      <path id="DejaVuSerif-Bold-4c" d="M 300 0 
L 300 378 
L 897 378 
L 897 4288 
L 300 4288 
L 300 4666 
L 2700 4666 
L 2700 4288 
L 2100 4288 
L 2100 428 
L 3938 428 
L 3938 1166 
L 4359 1166 
L 4359 0 
L 300 0 
z
" transform="scale(0.015625)"/>
      <path id="DejaVuSerif-Bold-67" d="M 3853 2944 
L 3853 44 
Q 3853 -656 3354 -1039 
Q 2856 -1422 1947 -1422 
Q 1616 -1422 1275 -1370 
Q 934 -1319 575 -1216 
L 575 -422 
L 928 -422 
Q 975 -750 1192 -909 
Q 1409 -1069 1813 -1069 
Q 2325 -1069 2536 -823 
Q 2747 -578 2747 44 
L 2747 422 
Q 2606 163 2367 36 
Q 2128 -91 1778 -91 
Q 1072 -91 667 378 
Q 263 847 263 1663 
Q 263 2481 667 2947 
Q 1072 3413 1778 3413 
Q 2128 3413 2367 3286 
Q 2606 3159 2747 2900 
L 2747 3322 
L 4325 3322 
L 4325 2944 
L 3853 2944 
z
M 2747 1825 
Q 2747 2406 2597 2665 
Q 2447 2925 2119 2925 
Q 1775 2925 1636 2651 
Q 1497 2378 1497 1663 
Q 1497 947 1637 672 
Q 1778 397 2119 397 
Q 2447 397 2597 656 
Q 2747 916 2747 1497 
L 2747 1825 
z
" transform="scale(0.015625)"/>
      <path id="DejaVuSerif-Bold-20" transform="scale(0.015625)"/>
     </defs>
     <use xlink:href="#DejaVuSerif-Bold-4c"/>
     <use xlink:href="#DejaVuSerif-Bold-6f" x="70.3125"/>
     <use xlink:href="#DejaVuSerif-Bold-67" x="137.011719"/>
     <use xlink:href="#DejaVuSerif-Bold-69" x="206.933594"/>
     <use xlink:href="#DejaVuSerif-Bold-73" x="244.921875"/>
     <use xlink:href="#DejaVuSerif-Bold-74" x="301.220703"/>
     <use xlink:href="#DejaVuSerif-Bold-69" x="347.412109"/>
     <use xlink:href="#DejaVuSerif-Bold-63" x="385.400391"/>
     <use xlink:href="#DejaVuSerif-Bold-73" x="446.289062"/>
     <use xlink:href="#DejaVuSerif-Bold-20" x="502.587891"/>
     <use xlink:href="#DejaVuSerif-Bold-4c" x="537.402344"/>
     <use xlink:href="#DejaVuSerif-Bold-6f" x="607.714844"/>
     <use xlink:href="#DejaVuSerif-Bold-67" x="674.414062"/>
     <use xlink:href="#DejaVuSerif-Bold-73" x="744.335938"/>
    </g>
   </g>
   <g id="text_3">
    <!-- Trips, fleet attributes, -->
    <g style="fill: #62727f" transform="translate(52.398061 192.760751) scale(0.105 -0.105)">
     <defs>
      <path id="DejaVuSans-54" d="M -19 4666 
L 3928 4666 
L 3928 4134 
L 2272 4134 
L 2272 0 
L 1638 0 
L 1638 4134 
L -19 4134 
L -19 4666 
z
" transform="scale(0.015625)"/>
      <path id="DejaVuSans-72" d="M 2631 2963 
Q 2534 3019 2420 3045 
Q 2306 3072 2169 3072 
Q 1681 3072 1420 2755 
Q 1159 2438 1159 1844 
L 1159 0 
L 581 0 
L 581 3500 
L 1159 3500 
L 1159 2956 
Q 1341 3275 1631 3429 
Q 1922 3584 2338 3584 
Q 2397 3584 2469 3576 
Q 2541 3569 2628 3553 
L 2631 2963 
z
" transform="scale(0.015625)"/>
      <path id="DejaVuSans-69" d="M 603 3500 
L 1178 3500 
L 1178 0 
L 603 0 
L 603 3500 
z
M 603 4863 
L 1178 4863 
L 1178 4134 
L 603 4134 
L 603 4863 
z
" transform="scale(0.015625)"/>
      <path id="DejaVuSans-70" d="M 1159 525 
L 1159 -1331 
L 581 -1331 
L 581 3500 
L 1159 3500 
L 1159 2969 
Q 1341 3281 1617 3432 
Q 1894 3584 2278 3584 
Q 2916 3584 3314 3078 
Q 3713 2572 3713 1747 
Q 3713 922 3314 415 
Q 2916 -91 2278 -91 
Q 1894 -91 1617 61 
Q 1341 213 1159 525 
z
M 3116 1747 
Q 3116 2381 2855 2742 
Q 2594 3103 2138 3103 
Q 1681 3103 1420 2742 
Q 1159 2381 1159 1747 
Q 1159 1113 1420 752 
Q 1681 391 2138 391 
Q 2594 391 2855 752 
Q 3116 1113 3116 1747 
z
" transform="scale(0.015625)"/>
      <path id="DejaVuSans-73" d="M 2834 3397 
L 2834 2853 
Q 2591 2978 2328 3040 
Q 2066 3103 1784 3103 
Q 1356 3103 1142 2972 
Q 928 2841 928 2578 
Q 928 2378 1081 2264 
Q 1234 2150 1697 2047 
L 1894 2003 
Q 2506 1872 2764 1633 
Q 3022 1394 3022 966 
Q 3022 478 2636 193 
Q 2250 -91 1575 -91 
Q 1294 -91 989 -36 
Q 684 19 347 128 
L 347 722 
Q 666 556 975 473 
Q 1284 391 1588 391 
Q 1994 391 2212 530 
Q 2431 669 2431 922 
Q 2431 1156 2273 1281 
Q 2116 1406 1581 1522 
L 1381 1569 
Q 847 1681 609 1914 
Q 372 2147 372 2553 
Q 372 3047 722 3315 
Q 1072 3584 1716 3584 
Q 2034 3584 2315 3537 
Q 2597 3491 2834 3397 
z
" transform="scale(0.015625)"/>
      <path id="DejaVuSans-2c" d="M 750 794 
L 1409 794 
L 1409 256 
L 897 -744 
L 494 -744 
L 750 256 
L 750 794 
z
" transform="scale(0.015625)"/>
      <path id="DejaVuSans-20" transform="scale(0.015625)"/>
      <path id="DejaVuSans-66" d="M 2375 4863 
L 2375 4384 
L 1825 4384 
Q 1516 4384 1395 4259 
Q 1275 4134 1275 3809 
L 1275 3500 
L 2222 3500 
L 2222 3053 
L 1275 3053 
L 1275 0 
L 697 0 
L 697 3053 
L 147 3053 
L 147 3500 
L 697 3500 
L 697 3744 
Q 697 4328 969 4595 
Q 1241 4863 1831 4863 
L 2375 4863 
z
" transform="scale(0.015625)"/>
      <path id="DejaVuSans-6c" d="M 603 4863 
L 1178 4863 
L 1178 0 
L 603 0 
L 603 4863 
z
" transform="scale(0.015625)"/>
      <path id="DejaVuSans-65" d="M 3597 1894 
L 3597 1613 
L 953 1613 
Q 991 1019 1311 708 
Q 1631 397 2203 397 
Q 2534 397 2845 478 
Q 3156 559 3463 722 
L 3463 178 
Q 3153 47 2828 -22 
Q 2503 -91 2169 -91 
Q 1331 -91 842 396 
Q 353 884 353 1716 
Q 353 2575 817 3079 
Q 1281 3584 2069 3584 
Q 2775 3584 3186 3129 
Q 3597 2675 3597 1894 
z
M 3022 2063 
Q 3016 2534 2758 2815 
Q 2500 3097 2075 3097 
Q 1594 3097 1305 2825 
Q 1016 2553 972 2059 
L 3022 2063 
z
" transform="scale(0.015625)"/>
      <path id="DejaVuSans-74" d="M 1172 4494 
L 1172 3500 
L 2356 3500 
L 2356 3053 
L 1172 3053 
L 1172 1153 
Q 1172 725 1289 603 
Q 1406 481 1766 481 
L 2356 481 
L 2356 0 
L 1766 0 
Q 1100 0 847 248 
Q 594 497 594 1153 
L 594 3053 
L 172 3053 
L 172 3500 
L 594 3500 
L 594 4494 
L 1172 4494 
z
" transform="scale(0.015625)"/>
      <path id="DejaVuSans-61" d="M 2194 1759 
Q 1497 1759 1228 1600 
Q 959 1441 959 1056 
Q 959 750 1161 570 
Q 1363 391 1709 391 
Q 2188 391 2477 730 
Q 2766 1069 2766 1631 
L 2766 1759 
L 2194 1759 
z
M 3341 1997 
L 3341 0 
L 2766 0 
L 2766 531 
Q 2569 213 2275 61 
Q 1981 -91 1556 -91 
Q 1019 -91 701 211 
Q 384 513 384 1019 
Q 384 1609 779 1909 
Q 1175 2209 1959 2209 
L 2766 2209 
L 2766 2266 
Q 2766 2663 2505 2880 
Q 2244 3097 1772 3097 
Q 1472 3097 1187 3025 
Q 903 2953 641 2809 
L 641 3341 
Q 956 3463 1253 3523 
Q 1550 3584 1831 3584 
Q 2591 3584 2966 3190 
Q 3341 2797 3341 1997 
z
" transform="scale(0.015625)"/>
      <path id="DejaVuSans-62" d="M 3116 1747 
Q 3116 2381 2855 2742 
Q 2594 3103 2138 3103 
Q 1681 3103 1420 2742 
Q 1159 2381 1159 1747 
Q 1159 1113 1420 752 
Q 1681 391 2138 391 
Q 2594 391 2855 752 
Q 3116 1113 3116 1747 
z
M 1159 2969 
Q 1341 3281 1617 3432 
Q 1894 3584 2278 3584 
Q 2916 3584 3314 3078 
Q 3713 2572 3713 1747 
Q 3713 922 3314 415 
Q 2916 -91 2278 -91 
Q 1894 -91 1617 61 
Q 1341 213 1159 525 
L 1159 0 
L 581 0 
L 581 4863 
L 1159 4863 
L 1159 2969 
z
" transform="scale(0.015625)"/>
      <path id="DejaVuSans-75" d="M 544 1381 
L 544 3500 
L 1119 3500 
L 1119 1403 
Q 1119 906 1312 657 
Q 1506 409 1894 409 
Q 2359 409 2629 706 
Q 2900 1003 2900 1516 
L 2900 3500 
L 3475 3500 
L 3475 0 
L 2900 0 
L 2900 538 
Q 2691 219 2414 64 
Q 2138 -91 1772 -91 
Q 1169 -91 856 284 
Q 544 659 544 1381 
z
M 1991 3584 
L 1991 3584 
z
" transform="scale(0.015625)"/>
     </defs>
     <use xlink:href="#DejaVuSans-54"/>
     <use xlink:href="#DejaVuSans-72" x="46.333984"/>
     <use xlink:href="#DejaVuSans-69" x="87.447266"/>
     <use xlink:href="#DejaVuSans-70" x="115.230469"/>
     <use xlink:href="#DejaVuSans-73" x="178.707031"/>
     <use xlink:href="#DejaVuSans-2c" x="230.806641"/>
     <use xlink:href="#DejaVuSans-20" x="262.59375"/>
     <use xlink:href="#DejaVuSans-66" x="294.380859"/>
     <use xlink:href="#DejaVuSans-6c" x="329.585938"/>
     <use xlink:href="#DejaVuSans-65" x="357.369141"/>
     <use xlink:href="#DejaVuSans-65" x="418.892578"/>
     <use xlink:href="#DejaVuSans-74" x="480.416016"/>
     <use xlink:href="#DejaVuSans-20" x="519.625"/>
     <use xlink:href="#DejaVuSans-61" x="551.412109"/>
     <use xlink:href="#DejaVuSans-74" x="612.691406"/>
     <use xlink:href="#DejaVuSans-74" x="651.900391"/>
     <use xlink:href="#DejaVuSans-72" x="691.109375"/>
     <use xlink:href="#DejaVuSans-69" x="732.222656"/>
     <use xlink:href="#DejaVuSans-62" x="760.005859"/>
     <use xlink:href="#DejaVuSans-75" x="823.482422"/>
     <use xlink:href="#DejaVuSans-74" x="886.861328"/>
     <use xlink:href="#DejaVuSans-65" x="926.070312"/>
     <use xlink:href="#DejaVuSans-73" x="987.59375"/>
     <use xlink:href="#DejaVuSans-2c" x="1039.693359"/>
    </g>
    <!-- demand, and route -->
    <g style="fill: #62727f" transform="translate(58.342865 204.518454) scale(0.105 -0.105)">
     <defs>
      <path id="DejaVuSans-64" d="M 2906 2969 
L 2906 4863 
L 3481 4863 
L 3481 0 
L 2906 0 
L 2906 525 
Q 2725 213 2448 61 
Q 2172 -91 1784 -91 
Q 1150 -91 751 415 
Q 353 922 353 1747 
Q 353 2572 751 3078 
Q 1150 3584 1784 3584 
Q 2172 3584 2448 3432 
Q 2725 3281 2906 2969 
z
M 947 1747 
Q 947 1113 1208 752 
Q 1469 391 1925 391 
Q 2381 391 2643 752 
Q 2906 1113 2906 1747 
Q 2906 2381 2643 2742 
Q 2381 3103 1925 3103 
Q 1469 3103 1208 2742 
Q 947 2381 947 1747 
z
" transform="scale(0.015625)"/>
      <path id="DejaVuSans-6d" d="M 3328 2828 
Q 3544 3216 3844 3400 
Q 4144 3584 4550 3584 
Q 5097 3584 5394 3201 
Q 5691 2819 5691 2113 
L 5691 0 
L 5113 0 
L 5113 2094 
Q 5113 2597 4934 2840 
Q 4756 3084 4391 3084 
Q 3944 3084 3684 2787 
Q 3425 2491 3425 1978 
L 3425 0 
L 2847 0 
L 2847 2094 
Q 2847 2600 2669 2842 
Q 2491 3084 2119 3084 
Q 1678 3084 1418 2786 
Q 1159 2488 1159 1978 
L 1159 0 
L 581 0 
L 581 3500 
L 1159 3500 
L 1159 2956 
Q 1356 3278 1631 3431 
Q 1906 3584 2284 3584 
Q 2666 3584 2933 3390 
Q 3200 3197 3328 2828 
z
" transform="scale(0.015625)"/>
      <path id="DejaVuSans-6e" d="M 3513 2113 
L 3513 0 
L 2938 0 
L 2938 2094 
Q 2938 2591 2744 2837 
Q 2550 3084 2163 3084 
Q 1697 3084 1428 2787 
Q 1159 2491 1159 1978 
L 1159 0 
L 581 0 
L 581 3500 
L 1159 3500 
L 1159 2956 
Q 1366 3272 1645 3428 
Q 1925 3584 2291 3584 
Q 2894 3584 3203 3211 
Q 3513 2838 3513 2113 
z
" transform="scale(0.015625)"/>
      <path id="DejaVuSans-6f" d="M 1959 3097 
Q 1497 3097 1228 2736 
Q 959 2375 959 1747 
Q 959 1119 1226 758 
Q 1494 397 1959 397 
Q 2419 397 2687 759 
Q 2956 1122 2956 1747 
Q 2956 2369 2687 2733 
Q 2419 3097 1959 3097 
z
M 1959 3584 
Q 2709 3584 3137 3096 
Q 3566 2609 3566 1747 
Q 3566 888 3137 398 
Q 2709 -91 1959 -91 
Q 1206 -91 779 398 
Q 353 888 353 1747 
Q 353 2609 779 3096 
Q 1206 3584 1959 3584 
z
" transform="scale(0.015625)"/>
     </defs>
     <use xlink:href="#DejaVuSans-64"/>
     <use xlink:href="#DejaVuSans-65" x="63.476562"/>
     <use xlink:href="#DejaVuSans-6d" x="125"/>
     <use xlink:href="#DejaVuSans-61" x="222.412109"/>
     <use xlink:href="#DejaVuSans-6e" x="283.691406"/>
     <use xlink:href="#DejaVuSans-64" x="347.070312"/>
     <use xlink:href="#DejaVuSans-2c" x="410.546875"/>
     <use xlink:href="#DejaVuSans-20" x="442.333984"/>
     <use xlink:href="#DejaVuSans-61" x="474.121094"/>
     <use xlink:href="#DejaVuSans-6e" x="535.400391"/>
     <use xlink:href="#DejaVuSans-64" x="598.779297"/>
     <use xlink:href="#DejaVuSans-20" x="662.255859"/>
     <use xlink:href="#DejaVuSans-72" x="694.042969"/>
     <use xlink:href="#DejaVuSans-6f" x="732.90625"/>
     <use xlink:href="#DejaVuSans-75" x="794.087891"/>
     <use xlink:href="#DejaVuSans-74" x="857.466797"/>
     <use xlink:href="#DejaVuSans-65" x="896.675781"/>
    </g>
    <!-- context -->
    <g style="fill: #62727f" transform="translate(88.860131 216.276157) scale(0.105 -0.105)">
     <defs>
      <path id="DejaVuSans-63" d="M 3122 3366 
L 3122 2828 
Q 2878 2963 2633 3030 
Q 2388 3097 2138 3097 
Q 1578 3097 1268 2742 
Q 959 2388 959 1747 
Q 959 1106 1268 751 
Q 1578 397 2138 397 
Q 2388 397 2633 464 
Q 2878 531 3122 666 
L 3122 134 
Q 2881 22 2623 -34 
Q 2366 -91 2075 -91 
Q 1284 -91 818 406 
Q 353 903 353 1747 
Q 353 2603 823 3093 
Q 1294 3584 2113 3584 
Q 2378 3584 2631 3529 
Q 2884 3475 3122 3366 
z
" transform="scale(0.015625)"/>
      <path id="DejaVuSans-78" d="M 3513 3500 
L 2247 1797 
L 3578 0 
L 2900 0 
L 1881 1375 
L 863 0 
L 184 0 
L 1544 1831 
L 300 3500 
L 978 3500 
L 1906 2253 
L 2834 3500 
L 3513 3500 
z
" transform="scale(0.015625)"/>
     </defs>
     <use xlink:href="#DejaVuSans-63"/>
     <use xlink:href="#DejaVuSans-6f" x="54.980469"/>
     <use xlink:href="#DejaVuSans-6e" x="116.162109"/>
     <use xlink:href="#DejaVuSans-74" x="179.541016"/>
     <use xlink:href="#DejaVuSans-65" x="218.75"/>
     <use xlink:href="#DejaVuSans-78" x="278.523438"/>
     <use xlink:href="#DejaVuSans-74" x="337.703125"/>
    </g>
   </g>
   <g id="text_4">
    <!-- 2 -->
    <g style="fill: #3f6b5b" transform="translate(241.93727 139.745544) scale(0.1 -0.1)">
     <defs>
      <path id="DejaVuSans-Bold-32" d="M 1844 884 
L 3897 884 
L 3897 0 
L 506 0 
L 506 884 
L 2209 2388 
Q 2438 2594 2547 2791 
Q 2656 2988 2656 3200 
Q 2656 3528 2436 3728 
Q 2216 3928 1850 3928 
Q 1569 3928 1234 3808 
Q 900 3688 519 3450 
L 519 4475 
Q 925 4609 1322 4679 
Q 1719 4750 2100 4750 
Q 2938 4750 3402 4381 
Q 3866 4013 3866 3353 
Q 3866 2972 3669 2642 
Q 3472 2313 2841 1759 
L 1844 884 
z
" transform="scale(0.015625)"/>
     </defs>
     <use xlink:href="#DejaVuSans-Bold-32"/>
    </g>
   </g>
   <g id="text_5">
    <!-- Confounder-Aware -->
    <g style="fill: #213547" transform="translate(238.560744 165.691414) scale(0.14 -0.14)">
     <defs>
      <path id="DejaVuSerif-Bold-43" d="M 4769 1331 
Q 4584 609 4106 259 
Q 3628 -91 2822 -91 
Q 1641 -91 955 561 
Q 269 1213 269 2328 
Q 269 3447 955 4098 
Q 1641 4750 2822 4750 
Q 3238 4750 3688 4650 
Q 4138 4550 4641 4347 
L 4641 3200 
L 4244 3200 
Q 4122 3788 3800 4080 
Q 3478 4372 2950 4372 
Q 2269 4372 1937 3870 
Q 1606 3369 1606 2328 
Q 1606 1288 1937 788 
Q 2269 288 2956 288 
Q 3422 288 3717 547 
Q 4013 806 4147 1331 
L 4769 1331 
z
" transform="scale(0.015625)"/>
      <path id="DejaVuSerif-Bold-6e" d="M 219 0 
L 219 378 
L 691 378 
L 691 2944 
L 219 2944 
L 219 3322 
L 1797 3322 
L 1797 2853 
Q 1997 3150 2253 3281 
Q 2509 3413 2900 3413 
Q 3459 3413 3745 3083 
Q 4031 2753 4031 2113 
L 4031 378 
L 4506 378 
L 4506 0 
L 2522 0 
L 2522 378 
L 2925 378 
L 2925 2144 
Q 2925 2566 2817 2730 
Q 2709 2894 2444 2894 
Q 2109 2894 1953 2648 
Q 1797 2403 1797 1869 
L 1797 378 
L 2203 378 
L 2203 0 
L 219 0 
z
" transform="scale(0.015625)"/>
      <path id="DejaVuSerif-Bold-66" d="M 3097 4031 
L 2747 4031 
Q 2722 4275 2605 4394 
Q 2488 4513 2272 4513 
Q 2022 4513 1909 4333 
Q 1797 4153 1797 3750 
L 1797 3322 
L 2631 3322 
L 2631 2944 
L 1797 2944 
L 1797 378 
L 2438 378 
L 2438 0 
L 219 0 
L 219 378 
L 691 378 
L 691 2944 
L 197 2944 
L 197 3322 
L 691 3322 
L 691 3738 
Q 691 4291 1044 4577 
Q 1397 4863 2081 4863 
Q 2347 4863 2600 4833 
Q 2853 4803 3097 4744 
L 3097 4031 
z
" transform="scale(0.015625)"/>
      <path id="DejaVuSerif-Bold-75" d="M 3963 3322 
L 3963 378 
L 4434 378 
L 4434 0 
L 2853 0 
L 2853 469 
Q 2656 172 2400 40 
Q 2144 -91 1753 -91 
Q 1194 -91 908 239 
Q 622 569 622 1209 
L 622 2944 
L 147 2944 
L 147 3322 
L 1728 3322 
L 1728 1381 
Q 1728 763 1831 595 
Q 1934 428 2209 428 
Q 2544 428 2698 675 
Q 2853 922 2853 1459 
L 2853 2944 
L 2450 2944 
L 2450 3322 
L 3963 3322 
z
" transform="scale(0.015625)"/>
      <path id="DejaVuSerif-Bold-64" d="M 2747 1497 
L 2747 1825 
Q 2747 2406 2597 2665 
Q 2447 2925 2119 2925 
Q 1775 2925 1636 2651 
Q 1497 2378 1497 1663 
Q 1497 947 1637 672 
Q 1778 397 2119 397 
Q 2447 397 2597 656 
Q 2747 916 2747 1497 
z
M 3853 378 
L 4325 378 
L 4325 0 
L 2747 0 
L 2747 422 
Q 2606 163 2367 36 
Q 2128 -91 1778 -91 
Q 1072 -91 667 378 
Q 263 847 263 1663 
Q 263 2481 667 2947 
Q 1072 3413 1778 3413 
Q 2128 3413 2367 3286 
Q 2606 3159 2747 2900 
L 2747 4488 
L 2272 4488 
L 2272 4863 
L 3853 4863 
L 3853 378 
z
" transform="scale(0.015625)"/>
      <path id="DejaVuSerif-Bold-65" d="M 2566 1875 
Q 2566 2531 2444 2795 
Q 2322 3059 2028 3059 
Q 1744 3059 1620 2800 
Q 1497 2541 1497 1931 
L 1497 1875 
L 2566 1875 
z
M 3781 1503 
L 1497 1503 
L 1497 1478 
Q 1497 834 1690 548 
Q 1884 263 2316 263 
Q 2675 263 2897 453 
Q 3119 644 3181 1006 
L 3700 1006 
Q 3566 441 3166 175 
Q 2766 -91 2047 -91 
Q 1184 -91 723 364 
Q 263 819 263 1663 
Q 263 2488 734 2950 
Q 1206 3413 2047 3413 
Q 2872 3413 3312 2927 
Q 3753 2441 3781 1503 
z
" transform="scale(0.015625)"/>
      <path id="DejaVuSerif-Bold-2d" d="M 347 2138 
L 2309 2138 
L 2309 1294 
L 347 1294 
L 347 2138 
z
" transform="scale(0.015625)"/>
      <path id="DejaVuSerif-Bold-41" d="M -50 0 
L -50 378 
L 331 378 
L 2088 4666 
L 2834 4666 
L 4594 378 
L 5038 378 
L 5038 0 
L 2853 0 
L 2853 378 
L 3309 378 
L 2925 1331 
L 1172 1331 
L 781 378 
L 1338 378 
L 1338 0 
L -50 0 
z
M 1325 1709 
L 2772 1709 
L 2053 3494 
L 1325 1709 
z
" transform="scale(0.015625)"/>
      <path id="DejaVuSerif-Bold-77" d="M 3450 3322 
L 4206 1106 
L 4831 2944 
L 4397 2944 
L 4397 3322 
L 5638 3322 
L 5638 2944 
L 5247 2944 
L 4244 0 
L 3481 0 
L 2778 2081 
L 2069 0 
L 1313 0 
L 306 2944 
L -56 2944 
L -56 3322 
L 1825 3322 
L 1825 2944 
L 1434 2944 
L 2047 1147 
L 2791 3322 
L 3450 3322 
z
" transform="scale(0.015625)"/>
     </defs>
     <use xlink:href="#DejaVuSerif-Bold-43"/>
     <use xlink:href="#DejaVuSerif-Bold-6f" x="79.589844"/>
     <use xlink:href="#DejaVuSerif-Bold-6e" x="146.289062"/>
     <use xlink:href="#DejaVuSerif-Bold-66" x="218.994141"/>
     <use xlink:href="#DejaVuSerif-Bold-6f" x="262.011719"/>
     <use xlink:href="#DejaVuSerif-Bold-75" x="328.710938"/>
     <use xlink:href="#DejaVuSerif-Bold-6e" x="401.416016"/>
     <use xlink:href="#DejaVuSerif-Bold-64" x="474.121094"/>
     <use xlink:href="#DejaVuSerif-Bold-65" x="544.042969"/>
     <use xlink:href="#DejaVuSerif-Bold-72" x="607.666016"/>
     <use xlink:href="#DejaVuSerif-Bold-2d" x="660.351562"/>
     <use xlink:href="#DejaVuSerif-Bold-41" x="701.855469"/>
     <use xlink:href="#DejaVuSerif-Bold-77" x="775.443359"/>
     <use xlink:href="#DejaVuSerif-Bold-61" x="861.527344"/>
     <use xlink:href="#DejaVuSerif-Bold-72" x="926.322266"/>
     <use xlink:href="#DejaVuSerif-Bold-65" x="979.007812"/>
    </g>
    <!-- State -->
    <g style="fill: #213547" transform="translate(291.034494 181.368351) scale(0.14 -0.14)">
     <defs>
      <path id="DejaVuSerif-Bold-53" d="M 494 225 
L 494 1331 
L 891 1331 
Q 981 806 1318 547 
Q 1656 288 2253 288 
Q 2738 288 2991 472 
Q 3244 656 3244 1013 
Q 3244 1294 3072 1450 
Q 2900 1606 2363 1741 
L 1663 1913 
Q 978 2088 700 2398 
Q 422 2709 422 3284 
Q 422 3978 883 4364 
Q 1344 4750 2175 4750 
Q 2584 4750 3026 4681 
Q 3469 4613 3944 4475 
L 3944 3444 
L 3547 3444 
Q 3456 3925 3150 4148 
Q 2844 4372 2278 4372 
Q 1816 4372 1580 4211 
Q 1344 4050 1344 3731 
Q 1344 3441 1506 3289 
Q 1669 3138 2303 2975 
L 3003 2803 
Q 3653 2641 3945 2297 
Q 4238 1953 4238 1350 
Q 4238 644 3750 276 
Q 3263 -91 2316 -91 
Q 1859 -91 1409 -12 
Q 959 66 494 225 
z
" transform="scale(0.015625)"/>
     </defs>
     <use xlink:href="#DejaVuSerif-Bold-53"/>
     <use xlink:href="#DejaVuSerif-Bold-74" x="72.216797"/>
     <use xlink:href="#DejaVuSerif-Bold-61" x="118.408203"/>
     <use xlink:href="#DejaVuSerif-Bold-74" x="183.203125"/>
     <use xlink:href="#DejaVuSerif-Bold-65" x="229.394531"/>
    </g>
   </g>
   <g id="text_6">
    <!-- Retain only pre-decision -->
    <g style="fill: #62727f" transform="translate(248.26094 192.760751) scale(0.105 -0.105)">
     <defs>
      <path id="DejaVuSans-52" d="M 2841 2188 
Q 3044 2119 3236 1894 
Q 3428 1669 3622 1275 
L 4263 0 
L 3584 0 
L 2988 1197 
Q 2756 1666 2539 1819 
Q 2322 1972 1947 1972 
L 1259 1972 
L 1259 0 
L 628 0 
L 628 4666 
L 2053 4666 
Q 2853 4666 3247 4331 
Q 3641 3997 3641 3322 
Q 3641 2881 3436 2590 
Q 3231 2300 2841 2188 
z
M 1259 4147 
L 1259 2491 
L 2053 2491 
Q 2509 2491 2742 2702 
Q 2975 2913 2975 3322 
Q 2975 3731 2742 3939 
Q 2509 4147 2053 4147 
L 1259 4147 
z
" transform="scale(0.015625)"/>
      <path id="DejaVuSans-79" d="M 2059 -325 
Q 1816 -950 1584 -1140 
Q 1353 -1331 966 -1331 
L 506 -1331 
L 506 -850 
L 844 -850 
Q 1081 -850 1212 -737 
Q 1344 -625 1503 -206 
L 1606 56 
L 191 3500 
L 800 3500 
L 1894 763 
L 2988 3500 
L 3597 3500 
L 2059 -325 
z
" transform="scale(0.015625)"/>
      <path id="DejaVuSans-2d" d="M 313 2009 
L 1997 2009 
L 1997 1497 
L 313 1497 
L 313 2009 
z
" transform="scale(0.015625)"/>
     </defs>
     <use xlink:href="#DejaVuSans-52"/>
     <use xlink:href="#DejaVuSans-65" x="64.982422"/>
     <use xlink:href="#DejaVuSans-74" x="126.505859"/>
     <use xlink:href="#DejaVuSans-61" x="165.714844"/>
     <use xlink:href="#DejaVuSans-69" x="226.994141"/>
     <use xlink:href="#DejaVuSans-6e" x="254.777344"/>
     <use xlink:href="#DejaVuSans-20" x="318.15625"/>
     <use xlink:href="#DejaVuSans-6f" x="349.943359"/>
     <use xlink:href="#DejaVuSans-6e" x="411.125"/>
     <use xlink:href="#DejaVuSans-6c" x="474.503906"/>
     <use xlink:href="#DejaVuSans-79" x="502.287109"/>
     <use xlink:href="#DejaVuSans-20" x="561.466797"/>
     <use xlink:href="#DejaVuSans-70" x="593.253906"/>
     <use xlink:href="#DejaVuSans-72" x="656.730469"/>
     <use xlink:href="#DejaVuSans-65" x="695.59375"/>
     <use xlink:href="#DejaVuSans-2d" x="757.117188"/>
     <use xlink:href="#DejaVuSans-64" x="793.201172"/>
     <use xlink:href="#DejaVuSans-65" x="856.677734"/>
     <use xlink:href="#DejaVuSans-63" x="918.201172"/>
     <use xlink:href="#DejaVuSans-69" x="973.181641"/>
     <use xlink:href="#DejaVuSans-73" x="1000.964844"/>
     <use xlink:href="#DejaVuSans-69" x="1053.064453"/>
     <use xlink:href="#DejaVuSans-6f" x="1080.847656"/>
     <use xlink:href="#DejaVuSans-6e" x="1142.029297"/>
    </g>
    <!-- covariates from the -->
    <g style="fill: #62727f" transform="translate(260.097229 204.518454) scale(0.105 -0.105)">
     <defs>
      <path id="DejaVuSans-76" d="M 191 3500 
L 800 3500 
L 1894 563 
L 2988 3500 
L 3597 3500 
L 2284 0 
L 1503 0 
L 191 3500 
z
" transform="scale(0.015625)"/>
      <path id="DejaVuSans-68" d="M 3513 2113 
L 3513 0 
L 2938 0 
L 2938 2094 
Q 2938 2591 2744 2837 
Q 2550 3084 2163 3084 
Q 1697 3084 1428 2787 
Q 1159 2491 1159 1978 
L 1159 0 
L 581 0 
L 581 4863 
L 1159 4863 
L 1159 2956 
Q 1366 3272 1645 3428 
Q 1925 3584 2291 3584 
Q 2894 3584 3203 3211 
Q 3513 2838 3513 2113 
z
" transform="scale(0.015625)"/>
     </defs>
     <use xlink:href="#DejaVuSans-63"/>
     <use xlink:href="#DejaVuSans-6f" x="54.980469"/>
     <use xlink:href="#DejaVuSans-76" x="116.162109"/>
     <use xlink:href="#DejaVuSans-61" x="175.341797"/>
     <use xlink:href="#DejaVuSans-72" x="236.621094"/>
     <use xlink:href="#DejaVuSans-69" x="277.734375"/>
     <use xlink:href="#DejaVuSans-61" x="305.517578"/>
     <use xlink:href="#DejaVuSans-74" x="366.796875"/>
     <use xlink:href="#DejaVuSans-65" x="406.005859"/>
     <use xlink:href="#DejaVuSans-73" x="467.529297"/>
     <use xlink:href="#DejaVuSans-20" x="519.628906"/>
     <use xlink:href="#DejaVuSans-66" x="551.416016"/>
     <use xlink:href="#DejaVuSans-72" x="586.621094"/>
     <use xlink:href="#DejaVuSans-6f" x="625.484375"/>
     <use xlink:href="#DejaVuSans-6d" x="686.666016"/>
     <use xlink:href="#DejaVuSans-20" x="784.078125"/>
     <use xlink:href="#DejaVuSans-74" x="815.865234"/>
     <use xlink:href="#DejaVuSans-68" x="855.074219"/>
     <use xlink:href="#DejaVuSans-65" x="918.453125"/>
    </g>
    <!-- causal DAG -->
    <g style="fill: #62727f" transform="translate(281.517229 216.276157) scale(0.105 -0.105)">
     <defs>
      <path id="DejaVuSans-44" d="M 1259 4147 
L 1259 519 
L 2022 519 
Q 2988 519 3436 956 
Q 3884 1394 3884 2338 
Q 3884 3275 3436 3711 
Q 2988 4147 2022 4147 
L 1259 4147 
z
M 628 4666 
L 1925 4666 
Q 3281 4666 3915 4102 
Q 4550 3538 4550 2338 
Q 4550 1131 3912 565 
Q 3275 0 1925 0 
L 628 0 
L 628 4666 
z
" transform="scale(0.015625)"/>
      <path id="DejaVuSans-41" d="M 2188 4044 
L 1331 1722 
L 3047 1722 
L 2188 4044 
z
M 1831 4666 
L 2547 4666 
L 4325 0 
L 3669 0 
L 3244 1197 
L 1141 1197 
L 716 0 
L 50 0 
L 1831 4666 
z
" transform="scale(0.015625)"/>
      <path id="DejaVuSans-47" d="M 3809 666 
L 3809 1919 
L 2778 1919 
L 2778 2438 
L 4434 2438 
L 4434 434 
Q 4069 175 3628 42 
Q 3188 -91 2688 -91 
Q 1594 -91 976 548 
Q 359 1188 359 2328 
Q 359 3472 976 4111 
Q 1594 4750 2688 4750 
Q 3144 4750 3555 4637 
Q 3966 4525 4313 4306 
L 4313 3634 
Q 3963 3931 3569 4081 
Q 3175 4231 2741 4231 
Q 1884 4231 1454 3753 
Q 1025 3275 1025 2328 
Q 1025 1384 1454 906 
Q 1884 428 2741 428 
Q 3075 428 3337 486 
Q 3600 544 3809 666 
z
" transform="scale(0.015625)"/>
     </defs>
     <use xlink:href="#DejaVuSans-63"/>
     <use xlink:href="#DejaVuSans-61" x="54.980469"/>
     <use xlink:href="#DejaVuSans-75" x="116.259766"/>
     <use xlink:href="#DejaVuSans-73" x="179.638672"/>
     <use xlink:href="#DejaVuSans-61" x="231.738281"/>
     <use xlink:href="#DejaVuSans-6c" x="293.017578"/>
     <use xlink:href="#DejaVuSans-20" x="320.800781"/>
     <use xlink:href="#DejaVuSans-44" x="352.587891"/>
     <use xlink:href="#DejaVuSans-41" x="427.839844"/>
     <use xlink:href="#DejaVuSans-47" x="494.498047"/>
    </g>
   </g>
   <g id="text_7">
    <!-- 3 -->
    <g style="fill: #3f6b5b" transform="translate(444.834329 139.745544) scale(0.1 -0.1)">
     <defs>
      <path id="DejaVuSans-Bold-33" d="M 2981 2516 
Q 3453 2394 3698 2092 
Q 3944 1791 3944 1325 
Q 3944 631 3412 270 
Q 2881 -91 1863 -91 
Q 1503 -91 1142 -33 
Q 781 25 428 141 
L 428 1069 
Q 766 900 1098 814 
Q 1431 728 1753 728 
Q 2231 728 2486 893 
Q 2741 1059 2741 1369 
Q 2741 1688 2480 1852 
Q 2219 2016 1709 2016 
L 1228 2016 
L 1228 2791 
L 1734 2791 
Q 2188 2791 2409 2933 
Q 2631 3075 2631 3366 
Q 2631 3634 2415 3781 
Q 2200 3928 1806 3928 
Q 1516 3928 1219 3862 
Q 922 3797 628 3669 
L 628 4550 
Q 984 4650 1334 4700 
Q 1684 4750 2022 4750 
Q 2931 4750 3382 4451 
Q 3834 4153 3834 3553 
Q 3834 3144 3618 2883 
Q 3403 2622 2981 2516 
z
" transform="scale(0.015625)"/>
     </defs>
     <use xlink:href="#DejaVuSans-Bold-33"/>
    </g>
   </g>
   <g id="text_8">
    <!-- Offline Policy -->
    <g style="fill: #213547" transform="translate(461.627647 165.492351) scale(0.14 -0.14)">
     <defs>
      <path id="DejaVuSerif-Bold-4f" d="M 2784 288 
Q 3381 288 3672 791 
Q 3963 1294 3963 2328 
Q 3963 3366 3672 3869 
Q 3381 4372 2784 4372 
Q 2191 4372 1898 3864 
Q 1606 3356 1606 2328 
Q 1606 1303 1898 795 
Q 2191 288 2784 288 
z
M 2784 -91 
Q 1606 -91 937 553 
Q 269 1197 269 2328 
Q 269 3459 939 4104 
Q 1609 4750 2784 4750 
Q 3963 4750 4631 4106 
Q 5300 3463 5300 2328 
Q 5300 1197 4629 553 
Q 3959 -91 2784 -91 
z
" transform="scale(0.015625)"/>
      <path id="DejaVuSerif-Bold-50" d="M 300 0 
L 300 378 
L 897 378 
L 897 4288 
L 300 4288 
L 300 4666 
L 2956 4666 
Q 3734 4666 4193 4295 
Q 4653 3925 4653 3303 
Q 4653 2678 4192 2304 
Q 3731 1931 2956 1931 
L 2100 1931 
L 2100 378 
L 2853 378 
L 2853 0 
L 300 0 
z
M 2100 2309 
L 2450 2309 
Q 2856 2309 3098 2579 
Q 3341 2850 3341 3303 
Q 3341 3753 3100 4020 
Q 2859 4288 2450 4288 
L 2100 4288 
L 2100 2309 
z
" transform="scale(0.015625)"/>
      <path id="DejaVuSerif-Bold-79" d="M 1997 -750 
Q 1847 -1116 1634 -1269 
Q 1422 -1422 1063 -1422 
Q 909 -1422 721 -1387 
Q 534 -1353 313 -1288 
L 313 -594 
L 666 -597 
Q 675 -838 779 -953 
Q 884 -1069 1094 -1069 
Q 1297 -1069 1422 -958 
Q 1547 -847 1672 -538 
L 1722 -422 
L 275 2944 
L -84 2944 
L -84 3322 
L 1831 3322 
L 1831 2944 
L 1434 2944 
L 2278 978 
L 3066 2944 
L 2625 2944 
L 2625 3322 
L 3872 3322 
L 3872 2944 
L 3469 2944 
L 1997 -750 
z
" transform="scale(0.015625)"/>
     </defs>
     <use xlink:href="#DejaVuSerif-Bold-4f"/>
     <use xlink:href="#DejaVuSerif-Bold-66" x="87.109375"/>
     <use xlink:href="#DejaVuSerif-Bold-66" x="130.126953"/>
     <use xlink:href="#DejaVuSerif-Bold-6c" x="173.144531"/>
     <use xlink:href="#DejaVuSerif-Bold-69" x="211.132812"/>
     <use xlink:href="#DejaVuSerif-Bold-6e" x="249.121094"/>
     <use xlink:href="#DejaVuSerif-Bold-65" x="321.826172"/>
     <use xlink:href="#DejaVuSerif-Bold-20" x="385.449219"/>
     <use xlink:href="#DejaVuSerif-Bold-50" x="420.263672"/>
     <use xlink:href="#DejaVuSerif-Bold-6f" x="492.833984"/>
     <use xlink:href="#DejaVuSerif-Bold-6c" x="559.533203"/>
     <use xlink:href="#DejaVuSerif-Bold-69" x="597.521484"/>
     <use xlink:href="#DejaVuSerif-Bold-63" x="635.509766"/>
     <use xlink:href="#DejaVuSerif-Bold-79" x="696.398438"/>
    </g>
    <!-- Learning -->
    <g style="fill: #213547" transform="translate(479.111241 181.368351) scale(0.14 -0.14)">
     <use xlink:href="#DejaVuSerif-Bold-4c"/>
     <use xlink:href="#DejaVuSerif-Bold-65" x="70.3125"/>
     <use xlink:href="#DejaVuSerif-Bold-61" x="133.935547"/>
     <use xlink:href="#DejaVuSerif-Bold-72" x="198.730469"/>
     <use xlink:href="#DejaVuSerif-Bold-6e" x="251.416016"/>
     <use xlink:href="#DejaVuSerif-Bold-69" x="324.121094"/>
     <use xlink:href="#DejaVuSerif-Bold-6e" x="362.109375"/>
     <use xlink:href="#DejaVuSerif-Bold-67" x="434.814453"/>
    </g>
   </g>
   <g id="text_9">
    <!-- Fit behavior and value -->
    <g style="fill: #62727f" transform="translate(456.01917 192.760751) scale(0.105 -0.105)">
     <defs>
      <path id="DejaVuSans-46" d="M 628 4666 
L 3309 4666 
L 3309 4134 
L 1259 4134 
L 1259 2759 
L 3109 2759 
L 3109 2228 
L 1259 2228 
L 1259 0 
L 628 0 
L 628 4666 
z
" transform="scale(0.015625)"/>
     </defs>
     <use xlink:href="#DejaVuSans-46"/>
     <use xlink:href="#DejaVuSans-69" x="50.269531"/>
     <use xlink:href="#DejaVuSans-74" x="78.052734"/>
     <use xlink:href="#DejaVuSans-20" x="117.261719"/>
     <use xlink:href="#DejaVuSans-62" x="149.048828"/>
     <use xlink:href="#DejaVuSans-65" x="212.525391"/>
     <use xlink:href="#DejaVuSans-68" x="274.048828"/>
     <use xlink:href="#DejaVuSans-61" x="337.427734"/>
     <use xlink:href="#DejaVuSans-76" x="398.707031"/>
     <use xlink:href="#DejaVuSans-69" x="457.886719"/>
     <use xlink:href="#DejaVuSans-6f" x="485.669922"/>
     <use xlink:href="#DejaVuSans-72" x="546.851562"/>
     <use xlink:href="#DejaVuSans-20" x="587.964844"/>
     <use xlink:href="#DejaVuSans-61" x="619.751953"/>
     <use xlink:href="#DejaVuSans-6e" x="681.03125"/>
     <use xlink:href="#DejaVuSans-64" x="744.410156"/>
     <use xlink:href="#DejaVuSans-20" x="807.886719"/>
     <use xlink:href="#DejaVuSans-76" x="839.673828"/>
     <use xlink:href="#DejaVuSans-61" x="898.853516"/>
     <use xlink:href="#DejaVuSans-6c" x="960.132812"/>
     <use xlink:href="#DejaVuSans-75" x="987.916016"/>
     <use xlink:href="#DejaVuSans-65" x="1051.294922"/>
    </g>
    <!-- models without online -->
    <g style="fill: #62727f" transform="translate(456.273467 204.518454) scale(0.105 -0.105)">
     <defs>
      <path id="DejaVuSans-77" d="M 269 3500 
L 844 3500 
L 1563 769 
L 2278 3500 
L 2956 3500 
L 3675 769 
L 4391 3500 
L 4966 3500 
L 4050 0 
L 3372 0 
L 2619 2869 
L 1863 0 
L 1184 0 
L 269 3500 
z
" transform="scale(0.015625)"/>
     </defs>
     <use xlink:href="#DejaVuSans-6d"/>
     <use xlink:href="#DejaVuSans-6f" x="97.412109"/>
     <use xlink:href="#DejaVuSans-64" x="158.59375"/>
     <use xlink:href="#DejaVuSans-65" x="222.070312"/>
     <use xlink:href="#DejaVuSans-6c" x="283.59375"/>
     <use xlink:href="#DejaVuSans-73" x="311.376953"/>
     <use xlink:href="#DejaVuSans-20" x="363.476562"/>
     <use xlink:href="#DejaVuSans-77" x="395.263672"/>
     <use xlink:href="#DejaVuSans-69" x="477.050781"/>
     <use xlink:href="#DejaVuSans-74" x="504.833984"/>
     <use xlink:href="#DejaVuSans-68" x="544.042969"/>
     <use xlink:href="#DejaVuSans-6f" x="607.421875"/>
     <use xlink:href="#DejaVuSans-75" x="668.603516"/>
     <use xlink:href="#DejaVuSans-74" x="731.982422"/>
     <use xlink:href="#DejaVuSans-20" x="771.191406"/>
     <use xlink:href="#DejaVuSans-6f" x="802.978516"/>
     <use xlink:href="#DejaVuSans-6e" x="864.160156"/>
     <use xlink:href="#DejaVuSans-6c" x="927.539062"/>
     <use xlink:href="#DejaVuSans-69" x="955.322266"/>
     <use xlink:href="#DejaVuSans-6e" x="983.105469"/>
     <use xlink:href="#DejaVuSans-65" x="1046.484375"/>
    </g>
    <!-- exploration -->
    <g style="fill: #62727f" transform="translate(484.76128 216.276157) scale(0.105 -0.105)">
     <use xlink:href="#DejaVuSans-65"/>
     <use xlink:href="#DejaVuSans-78" x="59.773438"/>
     <use xlink:href="#DejaVuSans-70" x="118.953125"/>
     <use xlink:href="#DejaVuSans-6c" x="182.429688"/>
     <use xlink:href="#DejaVuSans-6f" x="210.212891"/>
     <use xlink:href="#DejaVuSans-72" x="271.394531"/>
     <use xlink:href="#DejaVuSans-61" x="312.507812"/>
     <use xlink:href="#DejaVuSans-74" x="373.787109"/>
     <use xlink:href="#DejaVuSans-69" x="412.996094"/>
     <use xlink:href="#DejaVuSans-6f" x="440.779297"/>
     <use xlink:href="#DejaVuSans-6e" x="501.960938"/>
    </g>
   </g>
   <g id="text_10">
    <!-- 4 -->
    <g style="fill: #3f6b5b" transform="translate(647.731388 139.745544) scale(0.1 -0.1)">
     <defs>
      <path id="DejaVuSans-Bold-34" d="M 2356 3675 
L 1038 1722 
L 2356 1722 
L 2356 3675 
z
M 2156 4666 
L 3494 4666 
L 3494 1722 
L 4159 1722 
L 4159 850 
L 3494 850 
L 3494 0 
L 2356 0 
L 2356 850 
L 288 850 
L 288 1881 
L 2156 4666 
z
" transform="scale(0.015625)"/>
     </defs>
     <use xlink:href="#DejaVuSans-Bold-34"/>
    </g>
   </g>
   <g id="text_11">
    <!-- Off-Policy -->
    <g style="fill: #213547" transform="translate(679.171112 165.591882) scale(0.14 -0.14)">
     <use xlink:href="#DejaVuSerif-Bold-4f"/>
     <use xlink:href="#DejaVuSerif-Bold-66" x="87.109375"/>
     <use xlink:href="#DejaVuSerif-Bold-66" x="130.126953"/>
     <use xlink:href="#DejaVuSerif-Bold-2d" x="169.519531"/>
     <use xlink:href="#DejaVuSerif-Bold-50" x="211.023438"/>
     <use xlink:href="#DejaVuSerif-Bold-6f" x="283.59375"/>
     <use xlink:href="#DejaVuSerif-Bold-6c" x="350.292969"/>
     <use xlink:href="#DejaVuSerif-Bold-69" x="388.28125"/>
     <use xlink:href="#DejaVuSerif-Bold-63" x="426.269531"/>
     <use xlink:href="#DejaVuSerif-Bold-79" x="487.158203"/>
    </g>
    <!-- Evaluation -->
    <g style="fill: #213547" transform="translate(675.466581 181.467882) scale(0.14 -0.14)">
     <defs>
      <path id="DejaVuSerif-Bold-45" d="M 300 0 
L 300 378 
L 897 378 
L 897 4288 
L 300 4288 
L 300 4666 
L 4494 4666 
L 4494 3566 
L 4063 3566 
L 4063 4238 
L 2100 4238 
L 2100 2741 
L 3322 2741 
L 3322 3334 
L 3750 3334 
L 3750 1722 
L 3322 1722 
L 3322 2316 
L 2100 2316 
L 2100 428 
L 4122 428 
L 4122 1100 
L 4550 1100 
L 4550 0 
L 300 0 
z
" transform="scale(0.015625)"/>
      <path id="DejaVuSerif-Bold-76" d="M 1428 0 
L 250 2944 
L -116 2944 
L -116 3322 
L 1791 3322 
L 1791 2944 
L 1388 2944 
L 2228 844 
L 3066 2944 
L 2631 2944 
L 2631 3322 
L 3878 3322 
L 3878 2944 
L 3494 2944 
L 2316 0 
L 1428 0 
z
" transform="scale(0.015625)"/>
     </defs>
     <use xlink:href="#DejaVuSerif-Bold-45"/>
     <use xlink:href="#DejaVuSerif-Bold-76" x="76.220703"/>
     <use xlink:href="#DejaVuSerif-Bold-61" x="134.326172"/>
     <use xlink:href="#DejaVuSerif-Bold-6c" x="199.121094"/>
     <use xlink:href="#DejaVuSerif-Bold-75" x="237.109375"/>
     <use xlink:href="#DejaVuSerif-Bold-61" x="309.814453"/>
     <use xlink:href="#DejaVuSerif-Bold-74" x="374.609375"/>
     <use xlink:href="#DejaVuSerif-Bold-69" x="420.800781"/>
     <use xlink:href="#DejaVuSerif-Bold-6f" x="458.789062"/>
     <use xlink:href="#DejaVuSerif-Bold-6e" x="525.488281"/>
    </g>
   </g>
   <g id="text_12">
    <!-- Validate with doubly -->
    <g style="fill: #62727f" transform="translate(663.936542 192.760751) scale(0.105 -0.105)">
     <defs>
      <path id="DejaVuSans-56" d="M 1831 0 
L 50 4666 
L 709 4666 
L 2188 738 
L 3669 4666 
L 4325 4666 
L 2547 0 
L 1831 0 
z
" transform="scale(0.015625)"/>
     </defs>
     <use xlink:href="#DejaVuSans-56"/>
     <use xlink:href="#DejaVuSans-61" x="60.658203"/>
     <use xlink:href="#DejaVuSans-6c" x="121.9375"/>
     <use xlink:href="#DejaVuSans-69" x="149.720703"/>
     <use xlink:href="#DejaVuSans-64" x="177.503906"/>
     <use xlink:href="#DejaVuSans-61" x="240.980469"/>
     <use xlink:href="#DejaVuSans-74" x="302.259766"/>
     <use xlink:href="#DejaVuSans-65" x="341.46875"/>
     <use xlink:href="#DejaVuSans-20" x="402.992188"/>
     <use xlink:href="#DejaVuSans-77" x="434.779297"/>
     <use xlink:href="#DejaVuSans-69" x="516.566406"/>
     <use xlink:href="#DejaVuSans-74" x="544.349609"/>
     <use xlink:href="#DejaVuSans-68" x="583.558594"/>
     <use xlink:href="#DejaVuSans-20" x="646.9375"/>
     <use xlink:href="#DejaVuSans-64" x="678.724609"/>
     <use xlink:href="#DejaVuSans-6f" x="742.201172"/>
     <use xlink:href="#DejaVuSans-75" x="803.382812"/>
     <use xlink:href="#DejaVuSans-62" x="866.761719"/>
     <use xlink:href="#DejaVuSans-6c" x="930.238281"/>
     <use xlink:href="#DejaVuSans-79" x="958.021484"/>
    </g>
    <!-- robust and FQE -->
    <g style="fill: #62727f" transform="translate(676.949979 204.518454) scale(0.105 -0.105)">
     <defs>
      <path id="DejaVuSans-51" d="M 2522 4238 
Q 1834 4238 1429 3725 
Q 1025 3213 1025 2328 
Q 1025 1447 1429 934 
Q 1834 422 2522 422 
Q 3209 422 3611 934 
Q 4013 1447 4013 2328 
Q 4013 3213 3611 3725 
Q 3209 4238 2522 4238 
z
M 3406 84 
L 4238 -825 
L 3475 -825 
L 2784 -78 
Q 2681 -84 2626 -87 
Q 2572 -91 2522 -91 
Q 1538 -91 948 567 
Q 359 1225 359 2328 
Q 359 3434 948 4092 
Q 1538 4750 2522 4750 
Q 3503 4750 4090 4092 
Q 4678 3434 4678 2328 
Q 4678 1516 4351 937 
Q 4025 359 3406 84 
z
" transform="scale(0.015625)"/>
      <path id="DejaVuSans-45" d="M 628 4666 
L 3578 4666 
L 3578 4134 
L 1259 4134 
L 1259 2753 
L 3481 2753 
L 3481 2222 
L 1259 2222 
L 1259 531 
L 3634 531 
L 3634 0 
L 628 0 
L 628 4666 
z
" transform="scale(0.015625)"/>
     </defs>
     <use xlink:href="#DejaVuSans-72"/>
     <use xlink:href="#DejaVuSans-6f" x="38.863281"/>
     <use xlink:href="#DejaVuSans-62" x="100.044922"/>
     <use xlink:href="#DejaVuSans-75" x="163.521484"/>
     <use xlink:href="#DejaVuSans-73" x="226.900391"/>
     <use xlink:href="#DejaVuSans-74" x="279"/>
     <use xlink:href="#DejaVuSans-20" x="318.208984"/>
     <use xlink:href="#DejaVuSans-61" x="349.996094"/>
     <use xlink:href="#DejaVuSans-6e" x="411.275391"/>
     <use xlink:href="#DejaVuSans-64" x="474.654297"/>
     <use xlink:href="#DejaVuSans-20" x="538.130859"/>
     <use xlink:href="#DejaVuSans-46" x="569.917969"/>
     <use xlink:href="#DejaVuSans-51" x="627.4375"/>
     <use xlink:href="#DejaVuSans-45" x="706.148438"/>
    </g>
    <!-- diagnostics -->
    <g style="fill: #62727f" transform="translate(687.585331 216.276157) scale(0.105 -0.105)">
     <defs>
      <path id="DejaVuSans-67" d="M 2906 1791 
Q 2906 2416 2648 2759 
Q 2391 3103 1925 3103 
Q 1463 3103 1205 2759 
Q 947 2416 947 1791 
Q 947 1169 1205 825 
Q 1463 481 1925 481 
Q 2391 481 2648 825 
Q 2906 1169 2906 1791 
z
M 3481 434 
Q 3481 -459 3084 -895 
Q 2688 -1331 1869 -1331 
Q 1566 -1331 1297 -1286 
Q 1028 -1241 775 -1147 
L 775 -588 
Q 1028 -725 1275 -790 
Q 1522 -856 1778 -856 
Q 2344 -856 2625 -561 
Q 2906 -266 2906 331 
L 2906 616 
Q 2728 306 2450 153 
Q 2172 0 1784 0 
Q 1141 0 747 490 
Q 353 981 353 1791 
Q 353 2603 747 3093 
Q 1141 3584 1784 3584 
Q 2172 3584 2450 3431 
Q 2728 3278 2906 2969 
L 2906 3500 
L 3481 3500 
L 3481 434 
z
" transform="scale(0.015625)"/>
     </defs>
     <use xlink:href="#DejaVuSans-64"/>
     <use xlink:href="#DejaVuSans-69" x="63.476562"/>
     <use xlink:href="#DejaVuSans-61" x="91.259766"/>
     <use xlink:href="#DejaVuSans-67" x="152.539062"/>
     <use xlink:href="#DejaVuSans-6e" x="216.015625"/>
     <use xlink:href="#DejaVuSans-6f" x="279.394531"/>
     <use xlink:href="#DejaVuSans-73" x="340.576172"/>
     <use xlink:href="#DejaVuSans-74" x="392.675781"/>
     <use xlink:href="#DejaVuSans-69" x="431.884766"/>
     <use xlink:href="#DejaVuSans-63" x="459.667969"/>
     <use xlink:href="#DejaVuSans-73" x="514.648438"/>
    </g>
   </g>
   <g id="text_13">
    <!-- 5 -->
    <g style="fill: #3f6b5b" transform="translate(850.628447 139.745544) scale(0.1 -0.1)">
     <defs>
      <path id="DejaVuSans-Bold-35" d="M 678 4666 
L 3669 4666 
L 3669 3781 
L 1638 3781 
L 1638 3059 
Q 1775 3097 1914 3117 
Q 2053 3138 2203 3138 
Q 3056 3138 3531 2711 
Q 4006 2284 4006 1522 
Q 4006 766 3489 337 
Q 2972 -91 2053 -91 
Q 1656 -91 1267 -14 
Q 878 63 494 219 
L 494 1166 
Q 875 947 1217 837 
Q 1559 728 1863 728 
Q 2300 728 2551 942 
Q 2803 1156 2803 1522 
Q 2803 1891 2551 2103 
Q 2300 2316 1863 2316 
Q 1603 2316 1309 2248 
Q 1016 2181 678 2041 
L 678 4666 
z
" transform="scale(0.015625)"/>
     </defs>
     <use xlink:href="#DejaVuSans-Bold-35"/>
    </g>
   </g>
   <g id="text_14">
    <!-- Decision-Support -->
    <g style="fill: #213547" transform="translate(852.004265 165.691414) scale(0.14 -0.14)">
     <defs>
      <path id="DejaVuSerif-Bold-44" d="M 2100 378 
L 2534 378 
Q 3266 378 3605 847 
Q 3944 1316 3944 2338 
Q 3944 3353 3606 3820 
Q 3269 4288 2534 4288 
L 2100 4288 
L 2100 378 
z
M 300 0 
L 300 378 
L 897 378 
L 897 4288 
L 300 4288 
L 300 4666 
L 2694 4666 
Q 3950 4666 4615 4066 
Q 5281 3466 5281 2338 
Q 5281 1203 4614 601 
Q 3947 0 2694 0 
L 300 0 
z
" transform="scale(0.015625)"/>
      <path id="DejaVuSerif-Bold-70" d="M 1728 1825 
L 1728 1497 
Q 1728 916 1876 656 
Q 2025 397 2356 397 
Q 2697 397 2836 672 
Q 2975 947 2975 1663 
Q 2975 2378 2836 2651 
Q 2697 2925 2356 2925 
Q 2025 2925 1876 2665 
Q 1728 2406 1728 1825 
z
M 622 2944 
L 147 2944 
L 147 3322 
L 1728 3322 
L 1728 2900 
Q 1869 3159 2106 3286 
Q 2344 3413 2694 3413 
Q 3403 3413 3811 2945 
Q 4219 2478 4219 1663 
Q 4219 847 3811 378 
Q 3403 -91 2694 -91 
Q 2344 -91 2106 36 
Q 1869 163 1728 422 
L 1728 -953 
L 2241 -953 
L 2241 -1331 
L 147 -1331 
L 147 -953 
L 622 -953 
L 622 2944 
z
" transform="scale(0.015625)"/>
     </defs>
     <use xlink:href="#DejaVuSerif-Bold-44"/>
     <use xlink:href="#DejaVuSerif-Bold-65" x="86.71875"/>
     <use xlink:href="#DejaVuSerif-Bold-63" x="150.341797"/>
     <use xlink:href="#DejaVuSerif-Bold-69" x="211.230469"/>
     <use xlink:href="#DejaVuSerif-Bold-73" x="249.21875"/>
     <use xlink:href="#DejaVuSerif-Bold-69" x="305.517578"/>
     <use xlink:href="#DejaVuSerif-Bold-6f" x="343.505859"/>
     <use xlink:href="#DejaVuSerif-Bold-6e" x="410.205078"/>
     <use xlink:href="#DejaVuSerif-Bold-2d" x="482.910156"/>
     <use xlink:href="#DejaVuSerif-Bold-53" x="524.414062"/>
     <use xlink:href="#DejaVuSerif-Bold-75" x="596.630859"/>
     <use xlink:href="#DejaVuSerif-Bold-70" x="669.335938"/>
     <use xlink:href="#DejaVuSerif-Bold-70" x="739.257812"/>
     <use xlink:href="#DejaVuSerif-Bold-6f" x="809.179688"/>
     <use xlink:href="#DejaVuSerif-Bold-72" x="875.878906"/>
     <use xlink:href="#DejaVuSerif-Bold-74" x="928.564453"/>
    </g>
    <!-- Recommendation -->
    <g style="fill: #213547" transform="translate(851.596296 181.368351) scale(0.14 -0.14)">
     <defs>
      <path id="DejaVuSerif-Bold-52" d="M 3397 2278 
Q 3675 2238 3865 2094 
Q 4056 1950 4197 1678 
L 4878 378 
L 5356 378 
L 5356 0 
L 3822 0 
L 3078 1409 
Q 2863 1847 2711 1967 
Q 2559 2088 2291 2088 
L 2100 2088 
L 2100 378 
L 2700 378 
L 2700 0 
L 300 0 
L 300 378 
L 897 378 
L 897 4288 
L 300 4288 
L 300 4666 
L 2963 4666 
Q 3775 4666 4217 4339 
Q 4659 4013 4659 3413 
Q 4659 2925 4345 2642 
Q 4031 2359 3397 2278 
z
M 2100 2463 
L 2509 2463 
Q 2947 2463 3183 2700 
Q 3419 2938 3419 3378 
Q 3419 3819 3183 4053 
Q 2947 4288 2509 4288 
L 2100 4288 
L 2100 2463 
z
" transform="scale(0.015625)"/>
      <path id="DejaVuSerif-Bold-6d" d="M 3884 2778 
Q 4116 3109 4384 3261 
Q 4653 3413 5013 3413 
Q 5584 3413 5867 3089 
Q 6150 2766 6150 2113 
L 6150 378 
L 6625 378 
L 6625 0 
L 4647 0 
L 4647 378 
L 5044 378 
L 5044 1947 
Q 5044 2569 4948 2731 
Q 4853 2894 4594 2894 
Q 4300 2894 4137 2667 
Q 3975 2441 3975 2022 
L 3975 378 
L 4372 378 
L 4372 0 
L 2472 0 
L 2472 378 
L 2869 378 
L 2869 1947 
Q 2869 2569 2772 2731 
Q 2675 2894 2419 2894 
Q 2122 2894 1959 2667 
Q 1797 2441 1797 2022 
L 1797 378 
L 2194 378 
L 2194 0 
L 219 0 
L 219 378 
L 691 378 
L 691 2944 
L 219 2944 
L 219 3322 
L 1797 3322 
L 1797 2853 
Q 1991 3144 2241 3278 
Q 2491 3413 2834 3413 
Q 3241 3413 3494 3258 
Q 3747 3103 3884 2778 
z
" transform="scale(0.015625)"/>
     </defs>
     <use xlink:href="#DejaVuSerif-Bold-52"/>
     <use xlink:href="#DejaVuSerif-Bold-65" x="83.105469"/>
     <use xlink:href="#DejaVuSerif-Bold-63" x="146.728516"/>
     <use xlink:href="#DejaVuSerif-Bold-6f" x="207.617188"/>
     <use xlink:href="#DejaVuSerif-Bold-6d" x="274.316406"/>
     <use xlink:href="#DejaVuSerif-Bold-6d" x="380.126953"/>
     <use xlink:href="#DejaVuSerif-Bold-65" x="485.9375"/>
     <use xlink:href="#DejaVuSerif-Bold-6e" x="549.560547"/>
     <use xlink:href="#DejaVuSerif-Bold-64" x="622.265625"/>
     <use xlink:href="#DejaVuSerif-Bold-61" x="692.1875"/>
     <use xlink:href="#DejaVuSerif-Bold-74" x="756.982422"/>
     <use xlink:href="#DejaVuSerif-Bold-69" x="803.173828"/>
     <use xlink:href="#DejaVuSerif-Bold-6f" x="841.162109"/>
     <use xlink:href="#DejaVuSerif-Bold-6e" x="907.861328"/>
    </g>
   </g>
   <g id="text_15">
    <!-- Apply conservative eco- -->
    <g style="fill: #62727f" transform="translate(857.025944 192.760751) scale(0.105 -0.105)">
     <use xlink:href="#DejaVuSans-41"/>
     <use xlink:href="#DejaVuSans-70" x="68.408203"/>
     <use xlink:href="#DejaVuSans-70" x="131.884766"/>
     <use xlink:href="#DejaVuSans-6c" x="195.361328"/>
     <use xlink:href="#DejaVuSans-79" x="223.144531"/>
     <use xlink:href="#DejaVuSans-20" x="282.324219"/>
     <use xlink:href="#DejaVuSans-63" x="314.111328"/>
     <use xlink:href="#DejaVuSans-6f" x="369.091797"/>
     <use xlink:href="#DejaVuSans-6e" x="430.273438"/>
     <use xlink:href="#DejaVuSans-73" x="493.652344"/>
     <use xlink:href="#DejaVuSans-65" x="545.751953"/>
     <use xlink:href="#DejaVuSans-72" x="607.275391"/>
     <use xlink:href="#DejaVuSans-76" x="648.388672"/>
     <use xlink:href="#DejaVuSans-61" x="707.568359"/>
     <use xlink:href="#DejaVuSans-74" x="768.847656"/>
     <use xlink:href="#DejaVuSans-69" x="808.056641"/>
     <use xlink:href="#DejaVuSans-76" x="835.839844"/>
     <use xlink:href="#DejaVuSans-65" x="895.019531"/>
     <use xlink:href="#DejaVuSans-20" x="956.542969"/>
     <use xlink:href="#DejaVuSans-65" x="988.330078"/>
     <use xlink:href="#DejaVuSans-63" x="1049.853516"/>
     <use xlink:href="#DejaVuSans-6f" x="1104.833984"/>
     <use xlink:href="#DejaVuSans-2d" x="1167.890625"/>
    </g>
    <!-- mode overrides in -->
    <g style="fill: #62727f" transform="translate(872.693093 204.518454) scale(0.105 -0.105)">
     <use xlink:href="#DejaVuSans-6d"/>
     <use xlink:href="#DejaVuSans-6f" x="97.412109"/>
     <use xlink:href="#DejaVuSans-64" x="158.59375"/>
     <use xlink:href="#DejaVuSans-65" x="222.070312"/>
     <use xlink:href="#DejaVuSans-20" x="283.59375"/>
     <use xlink:href="#DejaVuSans-6f" x="315.380859"/>
     <use xlink:href="#DejaVuSans-76" x="376.5625"/>
     <use xlink:href="#DejaVuSans-65" x="435.742188"/>
     <use xlink:href="#DejaVuSans-72" x="497.265625"/>
     <use xlink:href="#DejaVuSans-72" x="536.628906"/>
     <use xlink:href="#DejaVuSans-69" x="577.742188"/>
     <use xlink:href="#DejaVuSans-64" x="605.525391"/>
     <use xlink:href="#DejaVuSans-65" x="669.001953"/>
     <use xlink:href="#DejaVuSans-73" x="730.525391"/>
     <use xlink:href="#DejaVuSans-20" x="782.625"/>
     <use xlink:href="#DejaVuSans-69" x="814.412109"/>
     <use xlink:href="#DejaVuSans-6e" x="842.195312"/>
    </g>
    <!-- operations -->
    <g style="fill: #62727f" transform="translate(892.29446 216.276157) scale(0.105 -0.105)">
     <use xlink:href="#DejaVuSans-6f"/>
     <use xlink:href="#DejaVuSans-70" x="61.181641"/>
     <use xlink:href="#DejaVuSans-65" x="124.658203"/>
     <use xlink:href="#DejaVuSans-72" x="186.181641"/>
     <use xlink:href="#DejaVuSans-61" x="227.294922"/>
     <use xlink:href="#DejaVuSans-74" x="288.574219"/>
     <use xlink:href="#DejaVuSans-69" x="327.783203"/>
     <use xlink:href="#DejaVuSans-6f" x="355.566406"/>
     <use xlink:href="#DejaVuSans-6e" x="416.748047"/>
     <use xlink:href="#DejaVuSans-73" x="480.126953"/>
    </g>
   </g>
   <g id="text_16">
    <!-- The pipeline is designed for conservative logistics decision support, not autonomous control. -->
    <g style="fill: #62727f" transform="translate(262.502422 264.933952) scale(0.11 -0.11)">
     <defs>
      <path id="DejaVuSans-2e" d="M 684 794 
L 1344 794 
L 1344 0 
L 684 0 
L 684 794 
z
" transform="scale(0.015625)"/>
     </defs>
     <use xlink:href="#DejaVuSans-54"/>
     <use xlink:href="#DejaVuSans-68" x="61.083984"/>
     <use xlink:href="#DejaVuSans-65" x="124.462891"/>
     <use xlink:href="#DejaVuSans-20" x="185.986328"/>
     <use xlink:href="#DejaVuSans-70" x="217.773438"/>
     <use xlink:href="#DejaVuSans-69" x="281.25"/>
     <use xlink:href="#DejaVuSans-70" x="309.033203"/>
     <use xlink:href="#DejaVuSans-65" x="372.509766"/>
     <use xlink:href="#DejaVuSans-6c" x="434.033203"/>
     <use xlink:href="#DejaVuSans-69" x="461.816406"/>
     <use xlink:href="#DejaVuSans-6e" x="489.599609"/>
     <use xlink:href="#DejaVuSans-65" x="552.978516"/>
     <use xlink:href="#DejaVuSans-20" x="614.501953"/>
     <use xlink:href="#DejaVuSans-69" x="646.289062"/>
     <use xlink:href="#DejaVuSans-73" x="674.072266"/>
     <use xlink:href="#DejaVuSans-20" x="726.171875"/>
     <use xlink:href="#DejaVuSans-64" x="757.958984"/>
     <use xlink:href="#DejaVuSans-65" x="821.435547"/>
     <use xlink:href="#DejaVuSans-73" x="882.958984"/>
     <use xlink:href="#DejaVuSans-69" x="935.058594"/>
     <use xlink:href="#DejaVuSans-67" x="962.841797"/>
     <use xlink:href="#DejaVuSans-6e" x="1026.318359"/>
     <use xlink:href="#DejaVuSans-65" x="1089.697266"/>
     <use xlink:href="#DejaVuSans-64" x="1151.220703"/>
     <use xlink:href="#DejaVuSans-20" x="1214.697266"/>
     <use xlink:href="#DejaVuSans-66" x="1246.484375"/>
     <use xlink:href="#DejaVuSans-6f" x="1281.689453"/>
     <use xlink:href="#DejaVuSans-72" x="1342.871094"/>
     <use xlink:href="#DejaVuSans-20" x="1383.984375"/>
     <use xlink:href="#DejaVuSans-63" x="1415.771484"/>
     <use xlink:href="#DejaVuSans-6f" x="1470.751953"/>
     <use xlink:href="#DejaVuSans-6e" x="1531.933594"/>
     <use xlink:href="#DejaVuSans-73" x="1595.3125"/>
     <use xlink:href="#DejaVuSans-65" x="1647.412109"/>
     <use xlink:href="#DejaVuSans-72" x="1708.935547"/>
     <use xlink:href="#DejaVuSans-76" x="1750.048828"/>
     <use xlink:href="#DejaVuSans-61" x="1809.228516"/>
     <use xlink:href="#DejaVuSans-74" x="1870.507812"/>
     <use xlink:href="#DejaVuSans-69" x="1909.716797"/>
     <use xlink:href="#DejaVuSans-76" x="1937.5"/>
     <use xlink:href="#DejaVuSans-65" x="1996.679688"/>
     <use xlink:href="#DejaVuSans-20" x="2058.203125"/>
     <use xlink:href="#DejaVuSans-6c" x="2089.990234"/>
     <use xlink:href="#DejaVuSans-6f" x="2117.773438"/>
     <use xlink:href="#DejaVuSans-67" x="2178.955078"/>
     <use xlink:href="#DejaVuSans-69" x="2242.431641"/>
     <use xlink:href="#DejaVuSans-73" x="2270.214844"/>
     <use xlink:href="#DejaVuSans-74" x="2322.314453"/>
     <use xlink:href="#DejaVuSans-69" x="2361.523438"/>
     <use xlink:href="#DejaVuSans-63" x="2389.306641"/>
     <use xlink:href="#DejaVuSans-73" x="2444.287109"/>
     <use xlink:href="#DejaVuSans-20" x="2496.386719"/>
     <use xlink:href="#DejaVuSans-64" x="2528.173828"/>
     <use xlink:href="#DejaVuSans-65" x="2591.650391"/>
     <use xlink:href="#DejaVuSans-63" x="2653.173828"/>
     <use xlink:href="#DejaVuSans-69" x="2708.154297"/>
     <use xlink:href="#DejaVuSans-73" x="2735.9375"/>
     <use xlink:href="#DejaVuSans-69" x="2788.037109"/>
     <use xlink:href="#DejaVuSans-6f" x="2815.820312"/>
     <use xlink:href="#DejaVuSans-6e" x="2877.001953"/>
     <use xlink:href="#DejaVuSans-20" x="2940.380859"/>
     <use xlink:href="#DejaVuSans-73" x="2972.167969"/>
     <use xlink:href="#DejaVuSans-75" x="3024.267578"/>
     <use xlink:href="#DejaVuSans-70" x="3087.646484"/>
     <use xlink:href="#DejaVuSans-70" x="3151.123047"/>
     <use xlink:href="#DejaVuSans-6f" x="3214.599609"/>
     <use xlink:href="#DejaVuSans-72" x="3275.78125"/>
     <use xlink:href="#DejaVuSans-74" x="3316.894531"/>
     <use xlink:href="#DejaVuSans-2c" x="3356.103516"/>
     <use xlink:href="#DejaVuSans-20" x="3387.890625"/>
     <use xlink:href="#DejaVuSans-6e" x="3419.677734"/>
     <use xlink:href="#DejaVuSans-6f" x="3483.056641"/>
     <use xlink:href="#DejaVuSans-74" x="3544.238281"/>
     <use xlink:href="#DejaVuSans-20" x="3583.447266"/>
     <use xlink:href="#DejaVuSans-61" x="3615.234375"/>
     <use xlink:href="#DejaVuSans-75" x="3676.513672"/>
     <use xlink:href="#DejaVuSans-74" x="3739.892578"/>
     <use xlink:href="#DejaVuSans-6f" x="3779.101562"/>
     <use xlink:href="#DejaVuSans-6e" x="3840.283203"/>
     <use xlink:href="#DejaVuSans-6f" x="3903.662109"/>
     <use xlink:href="#DejaVuSans-6d" x="3964.84375"/>
     <use xlink:href="#DejaVuSans-6f" x="4062.255859"/>
     <use xlink:href="#DejaVuSans-75" x="4123.4375"/>
     <use xlink:href="#DejaVuSans-73" x="4186.816406"/>
     <use xlink:href="#DejaVuSans-20" x="4238.916016"/>
     <use xlink:href="#DejaVuSans-63" x="4270.703125"/>
     <use xlink:href="#DejaVuSans-6f" x="4325.683594"/>
     <use xlink:href="#DejaVuSans-6e" x="4386.865234"/>
     <use xlink:href="#DejaVuSans-74" x="4450.244141"/>
     <use xlink:href="#DejaVuSans-72" x="4489.453125"/>
     <use xlink:href="#DejaVuSans-6f" x="4528.316406"/>
     <use xlink:href="#DejaVuSans-6c" x="4589.498047"/>
     <use xlink:href="#DejaVuSans-2e" x="4617.28125"/>
    </g>
   </g>
   <g id="text_17">
    <!-- Offline Decision-Support Workflow for the Urban Logistics Case Study -->
    <g style="fill: #213547" transform="translate(123.840625 22.396875) scale(0.2 -0.2)">
     <defs>
      <path id="DejaVuSerif-Bold-57" d="M 5453 0 
L 4647 0 
L 3591 3397 
L 2534 0 
L 1728 0 
L 397 4288 
L -56 4288 
L -56 4666 
L 2156 4666 
L 2156 4288 
L 1656 4288 
L 2547 1422 
L 3553 4666 
L 4441 4666 
L 5466 1369 
L 6375 4288 
L 5819 4288 
L 5819 4666 
L 7263 4666 
L 7263 4288 
L 6784 4288 
L 5453 0 
z
" transform="scale(0.015625)"/>
      <path id="DejaVuSerif-Bold-6b" d="M 2216 0 
L 219 0 
L 219 378 
L 691 378 
L 691 4488 
L 219 4488 
L 219 4863 
L 1797 4863 
L 1797 1741 
L 3138 2944 
L 2741 2944 
L 2741 3322 
L 4256 3322 
L 4256 2944 
L 3641 2944 
L 2784 2175 
L 4184 378 
L 4544 378 
L 4544 0 
L 2638 0 
L 2638 378 
L 3028 378 
L 2106 1563 
L 1797 1288 
L 1797 378 
L 2216 378 
L 2216 0 
z
" transform="scale(0.015625)"/>
      <path id="DejaVuSerif-Bold-68" d="M 219 0 
L 219 378 
L 691 378 
L 691 4488 
L 197 4488 
L 197 4863 
L 1797 4863 
L 1797 2853 
Q 1997 3150 2253 3281 
Q 2509 3413 2900 3413 
Q 3459 3413 3745 3083 
Q 4031 2753 4031 2113 
L 4031 378 
L 4506 378 
L 4506 0 
L 2522 0 
L 2522 378 
L 2925 378 
L 2925 2144 
Q 2925 2566 2817 2730 
Q 2709 2894 2444 2894 
Q 2109 2894 1953 2648 
Q 1797 2403 1797 1869 
L 1797 378 
L 2203 378 
L 2203 0 
L 219 0 
z
" transform="scale(0.015625)"/>
      <path id="DejaVuSerif-Bold-55" d="M 813 4288 
L 219 4288 
L 219 4666 
L 2619 4666 
L 2619 4288 
L 2022 4288 
L 2022 1953 
Q 2022 1081 2294 732 
Q 2566 384 3225 384 
Q 3869 384 4139 736 
Q 4409 1088 4409 1953 
L 4409 4288 
L 3816 4288 
L 3816 4666 
L 5441 4666 
L 5441 4288 
L 4844 4288 
L 4844 1888 
Q 4844 819 4381 364 
Q 3919 -91 2828 -91 
Q 1744 -91 1278 368 
Q 813 828 813 1894 
L 813 4288 
z
" transform="scale(0.015625)"/>
      <path id="DejaVuSerif-Bold-62" d="M 622 378 
L 622 4488 
L 147 4488 
L 147 4863 
L 1728 4863 
L 1728 2900 
Q 1869 3159 2106 3286 
Q 2344 3413 2694 3413 
Q 3403 3413 3811 2945 
Q 4219 2478 4219 1663 
Q 4219 847 3811 378 
Q 3403 -91 2694 -91 
Q 2344 -91 2106 36 
Q 1869 163 1728 422 
L 1728 0 
L 147 0 
L 147 378 
L 622 378 
z
M 1728 1497 
Q 1728 916 1876 656 
Q 2025 397 2356 397 
Q 2697 397 2836 672 
Q 2975 947 2975 1663 
Q 2975 2378 2836 2651 
Q 2697 2925 2356 2925 
Q 2025 2925 1876 2665 
Q 1728 2406 1728 1825 
L 1728 1497 
z
" transform="scale(0.015625)"/>
     </defs>
     <use xlink:href="#DejaVuSerif-Bold-4f"/>
     <use xlink:href="#DejaVuSerif-Bold-66" x="87.109375"/>
     <use xlink:href="#DejaVuSerif-Bold-66" x="130.126953"/>
     <use xlink:href="#DejaVuSerif-Bold-6c" x="173.144531"/>
     <use xlink:href="#DejaVuSerif-Bold-69" x="211.132812"/>
     <use xlink:href="#DejaVuSerif-Bold-6e" x="249.121094"/>
     <use xlink:href="#DejaVuSerif-Bold-65" x="321.826172"/>
     <use xlink:href="#DejaVuSerif-Bold-20" x="385.449219"/>
     <use xlink:href="#DejaVuSerif-Bold-44" x="420.263672"/>
     <use xlink:href="#DejaVuSerif-Bold-65" x="506.982422"/>
     <use xlink:href="#DejaVuSerif-Bold-63" x="570.605469"/>
     <use xlink:href="#DejaVuSerif-Bold-69" x="631.494141"/>
     <use xlink:href="#DejaVuSerif-Bold-73" x="669.482422"/>
     <use xlink:href="#DejaVuSerif-Bold-69" x="725.78125"/>
     <use xlink:href="#DejaVuSerif-Bold-6f" x="763.769531"/>
     <use xlink:href="#DejaVuSerif-Bold-6e" x="830.46875"/>
     <use xlink:href="#DejaVuSerif-Bold-2d" x="903.173828"/>
     <use xlink:href="#DejaVuSerif-Bold-53" x="944.677734"/>
     <use xlink:href="#DejaVuSerif-Bold-75" x="1016.894531"/>
     <use xlink:href="#DejaVuSerif-Bold-70" x="1089.599609"/>
     <use xlink:href="#DejaVuSerif-Bold-70" x="1159.521484"/>
     <use xlink:href="#DejaVuSerif-Bold-6f" x="1229.443359"/>
     <use xlink:href="#DejaVuSerif-Bold-72" x="1296.142578"/>
     <use xlink:href="#DejaVuSerif-Bold-74" x="1348.828125"/>
     <use xlink:href="#DejaVuSerif-Bold-20" x="1395.019531"/>
     <use xlink:href="#DejaVuSerif-Bold-57" x="1429.833984"/>
     <use xlink:href="#DejaVuSerif-Bold-6f" x="1534.013672"/>
     <use xlink:href="#DejaVuSerif-Bold-72" x="1600.712891"/>
     <use xlink:href="#DejaVuSerif-Bold-6b" x="1653.398438"/>
     <use xlink:href="#DejaVuSerif-Bold-66" x="1722.685547"/>
     <use xlink:href="#DejaVuSerif-Bold-6c" x="1765.703125"/>
     <use xlink:href="#DejaVuSerif-Bold-6f" x="1803.691406"/>
     <use xlink:href="#DejaVuSerif-Bold-77" x="1870.390625"/>
     <use xlink:href="#DejaVuSerif-Bold-20" x="1956.474609"/>
     <use xlink:href="#DejaVuSerif-Bold-66" x="1991.289062"/>
     <use xlink:href="#DejaVuSerif-Bold-6f" x="2034.306641"/>
     <use xlink:href="#DejaVuSerif-Bold-72" x="2101.005859"/>
     <use xlink:href="#DejaVuSerif-Bold-20" x="2153.691406"/>
     <use xlink:href="#DejaVuSerif-Bold-74" x="2188.505859"/>
     <use xlink:href="#DejaVuSerif-Bold-68" x="2234.697266"/>
     <use xlink:href="#DejaVuSerif-Bold-65" x="2307.402344"/>
     <use xlink:href="#DejaVuSerif-Bold-20" x="2371.025391"/>
     <use xlink:href="#DejaVuSerif-Bold-55" x="2405.839844"/>
     <use xlink:href="#DejaVuSerif-Bold-72" x="2493.046875"/>
     <use xlink:href="#DejaVuSerif-Bold-62" x="2545.732422"/>
     <use xlink:href="#DejaVuSerif-Bold-61" x="2615.654297"/>
     <use xlink:href="#DejaVuSerif-Bold-6e" x="2680.449219"/>
     <use xlink:href="#DejaVuSerif-Bold-20" x="2753.154297"/>
     <use xlink:href="#DejaVuSerif-Bold-4c" x="2787.96875"/>
     <use xlink:href="#DejaVuSerif-Bold-6f" x="2858.28125"/>
     <use xlink:href="#DejaVuSerif-Bold-67" x="2924.980469"/>
     <use xlink:href="#DejaVuSerif-Bold-69" x="2994.902344"/>
     <use xlink:href="#DejaVuSerif-Bold-73" x="3032.890625"/>
     <use xlink:href="#DejaVuSerif-Bold-74" x="3089.189453"/>
     <use xlink:href="#DejaVuSerif-Bold-69" x="3135.380859"/>
     <use xlink:href="#DejaVuSerif-Bold-63" x="3173.369141"/>
     <use xlink:href="#DejaVuSerif-Bold-73" x="3234.257812"/>
     <use xlink:href="#DejaVuSerif-Bold-20" x="3290.556641"/>
     <use xlink:href="#DejaVuSerif-Bold-43" x="3325.371094"/>
     <use xlink:href="#DejaVuSerif-Bold-61" x="3404.960938"/>
     <use xlink:href="#DejaVuSerif-Bold-73" x="3469.755859"/>
     <use xlink:href="#DejaVuSerif-Bold-65" x="3526.054688"/>
     <use xlink:href="#DejaVuSerif-Bold-20" x="3589.677734"/>
     <use xlink:href="#DejaVuSerif-Bold-53" x="3624.492188"/>
     <use xlink:href="#DejaVuSerif-Bold-74" x="3696.708984"/>
     <use xlink:href="#DejaVuSerif-Bold-75" x="3742.900391"/>
     <use xlink:href="#DejaVuSerif-Bold-64" x="3815.605469"/>
     <use xlink:href="#DejaVuSerif-Bold-79" x="3885.527344"/>
    </g>
   </g>
  </g>
 </g>
 <defs>
  <clipPath id="pe6bf11ea95">
   <rect x="7.2" y="40.396875" width="1022" height="246.92"/>
  </clipPath>
 </defs>
</svg>
